%TF.GenerationSoftware,KiCad,Pcbnew,7.0.10*%
%TF.CreationDate,2024-01-17T14:48:32+01:00*%
%TF.ProjectId,PowerBoard,506f7765-7242-46f6-9172-642e6b696361,rev?*%
%TF.SameCoordinates,Original*%
%TF.FileFunction,Legend,Top*%
%TF.FilePolarity,Positive*%
%FSLAX46Y46*%
G04 Gerber Fmt 4.6, Leading zero omitted, Abs format (unit mm)*
G04 Created by KiCad (PCBNEW 7.0.10) date 2024-01-17 14:48:32*
%MOMM*%
%LPD*%
G01*
G04 APERTURE LIST*
%ADD10C,0.150000*%
%ADD11C,0.254000*%
%ADD12C,0.200000*%
%ADD13C,0.100000*%
%ADD14C,0.120000*%
G04 APERTURE END LIST*
D10*
X114934800Y-114024017D02*
X114901466Y-114124017D01*
X114901466Y-114124017D02*
X114901466Y-114290684D01*
X114901466Y-114290684D02*
X114934800Y-114357350D01*
X114934800Y-114357350D02*
X114968133Y-114390684D01*
X114968133Y-114390684D02*
X115034800Y-114424017D01*
X115034800Y-114424017D02*
X115101466Y-114424017D01*
X115101466Y-114424017D02*
X115168133Y-114390684D01*
X115168133Y-114390684D02*
X115201466Y-114357350D01*
X115201466Y-114357350D02*
X115234800Y-114290684D01*
X115234800Y-114290684D02*
X115268133Y-114157350D01*
X115268133Y-114157350D02*
X115301466Y-114090684D01*
X115301466Y-114090684D02*
X115334800Y-114057350D01*
X115334800Y-114057350D02*
X115401466Y-114024017D01*
X115401466Y-114024017D02*
X115468133Y-114024017D01*
X115468133Y-114024017D02*
X115534800Y-114057350D01*
X115534800Y-114057350D02*
X115568133Y-114090684D01*
X115568133Y-114090684D02*
X115601466Y-114157350D01*
X115601466Y-114157350D02*
X115601466Y-114324017D01*
X115601466Y-114324017D02*
X115568133Y-114424017D01*
X114901466Y-114724017D02*
X115601466Y-114724017D01*
X115601466Y-114724017D02*
X115601466Y-114890684D01*
X115601466Y-114890684D02*
X115568133Y-114990684D01*
X115568133Y-114990684D02*
X115501466Y-115057351D01*
X115501466Y-115057351D02*
X115434800Y-115090684D01*
X115434800Y-115090684D02*
X115301466Y-115124017D01*
X115301466Y-115124017D02*
X115201466Y-115124017D01*
X115201466Y-115124017D02*
X115068133Y-115090684D01*
X115068133Y-115090684D02*
X115001466Y-115057351D01*
X115001466Y-115057351D02*
X114934800Y-114990684D01*
X114934800Y-114990684D02*
X114901466Y-114890684D01*
X114901466Y-114890684D02*
X114901466Y-114724017D01*
X115101466Y-115390684D02*
X115101466Y-115724017D01*
X114901466Y-115324017D02*
X115601466Y-115557351D01*
X115601466Y-115557351D02*
X114901466Y-115790684D01*
X114934800Y-111484017D02*
X114901466Y-111584017D01*
X114901466Y-111584017D02*
X114901466Y-111750684D01*
X114901466Y-111750684D02*
X114934800Y-111817350D01*
X114934800Y-111817350D02*
X114968133Y-111850684D01*
X114968133Y-111850684D02*
X115034800Y-111884017D01*
X115034800Y-111884017D02*
X115101466Y-111884017D01*
X115101466Y-111884017D02*
X115168133Y-111850684D01*
X115168133Y-111850684D02*
X115201466Y-111817350D01*
X115201466Y-111817350D02*
X115234800Y-111750684D01*
X115234800Y-111750684D02*
X115268133Y-111617350D01*
X115268133Y-111617350D02*
X115301466Y-111550684D01*
X115301466Y-111550684D02*
X115334800Y-111517350D01*
X115334800Y-111517350D02*
X115401466Y-111484017D01*
X115401466Y-111484017D02*
X115468133Y-111484017D01*
X115468133Y-111484017D02*
X115534800Y-111517350D01*
X115534800Y-111517350D02*
X115568133Y-111550684D01*
X115568133Y-111550684D02*
X115601466Y-111617350D01*
X115601466Y-111617350D02*
X115601466Y-111784017D01*
X115601466Y-111784017D02*
X115568133Y-111884017D01*
X114968133Y-112584017D02*
X114934800Y-112550684D01*
X114934800Y-112550684D02*
X114901466Y-112450684D01*
X114901466Y-112450684D02*
X114901466Y-112384017D01*
X114901466Y-112384017D02*
X114934800Y-112284017D01*
X114934800Y-112284017D02*
X115001466Y-112217351D01*
X115001466Y-112217351D02*
X115068133Y-112184017D01*
X115068133Y-112184017D02*
X115201466Y-112150684D01*
X115201466Y-112150684D02*
X115301466Y-112150684D01*
X115301466Y-112150684D02*
X115434800Y-112184017D01*
X115434800Y-112184017D02*
X115501466Y-112217351D01*
X115501466Y-112217351D02*
X115568133Y-112284017D01*
X115568133Y-112284017D02*
X115601466Y-112384017D01*
X115601466Y-112384017D02*
X115601466Y-112450684D01*
X115601466Y-112450684D02*
X115568133Y-112550684D01*
X115568133Y-112550684D02*
X115534800Y-112584017D01*
X114901466Y-113217351D02*
X114901466Y-112884017D01*
X114901466Y-112884017D02*
X115601466Y-112884017D01*
X115568133Y-109217017D02*
X115601466Y-109150350D01*
X115601466Y-109150350D02*
X115601466Y-109050350D01*
X115601466Y-109050350D02*
X115568133Y-108950350D01*
X115568133Y-108950350D02*
X115501466Y-108883684D01*
X115501466Y-108883684D02*
X115434800Y-108850350D01*
X115434800Y-108850350D02*
X115301466Y-108817017D01*
X115301466Y-108817017D02*
X115201466Y-108817017D01*
X115201466Y-108817017D02*
X115068133Y-108850350D01*
X115068133Y-108850350D02*
X115001466Y-108883684D01*
X115001466Y-108883684D02*
X114934800Y-108950350D01*
X114934800Y-108950350D02*
X114901466Y-109050350D01*
X114901466Y-109050350D02*
X114901466Y-109117017D01*
X114901466Y-109117017D02*
X114934800Y-109217017D01*
X114934800Y-109217017D02*
X114968133Y-109250350D01*
X114968133Y-109250350D02*
X115201466Y-109250350D01*
X115201466Y-109250350D02*
X115201466Y-109117017D01*
X114901466Y-109550350D02*
X115601466Y-109550350D01*
X115601466Y-109550350D02*
X114901466Y-109950350D01*
X114901466Y-109950350D02*
X115601466Y-109950350D01*
X114901466Y-110283683D02*
X115601466Y-110283683D01*
X115601466Y-110283683D02*
X115601466Y-110450350D01*
X115601466Y-110450350D02*
X115568133Y-110550350D01*
X115568133Y-110550350D02*
X115501466Y-110617017D01*
X115501466Y-110617017D02*
X115434800Y-110650350D01*
X115434800Y-110650350D02*
X115301466Y-110683683D01*
X115301466Y-110683683D02*
X115201466Y-110683683D01*
X115201466Y-110683683D02*
X115068133Y-110650350D01*
X115068133Y-110650350D02*
X115001466Y-110617017D01*
X115001466Y-110617017D02*
X114934800Y-110550350D01*
X114934800Y-110550350D02*
X114901466Y-110450350D01*
X114901466Y-110450350D02*
X114901466Y-110283683D01*
X115601466Y-106210350D02*
X114901466Y-106443684D01*
X114901466Y-106443684D02*
X115601466Y-106677017D01*
X114968133Y-107310350D02*
X114934800Y-107277017D01*
X114934800Y-107277017D02*
X114901466Y-107177017D01*
X114901466Y-107177017D02*
X114901466Y-107110350D01*
X114901466Y-107110350D02*
X114934800Y-107010350D01*
X114934800Y-107010350D02*
X115001466Y-106943684D01*
X115001466Y-106943684D02*
X115068133Y-106910350D01*
X115068133Y-106910350D02*
X115201466Y-106877017D01*
X115201466Y-106877017D02*
X115301466Y-106877017D01*
X115301466Y-106877017D02*
X115434800Y-106910350D01*
X115434800Y-106910350D02*
X115501466Y-106943684D01*
X115501466Y-106943684D02*
X115568133Y-107010350D01*
X115568133Y-107010350D02*
X115601466Y-107110350D01*
X115601466Y-107110350D02*
X115601466Y-107177017D01*
X115601466Y-107177017D02*
X115568133Y-107277017D01*
X115568133Y-107277017D02*
X115534800Y-107310350D01*
X114968133Y-108010350D02*
X114934800Y-107977017D01*
X114934800Y-107977017D02*
X114901466Y-107877017D01*
X114901466Y-107877017D02*
X114901466Y-107810350D01*
X114901466Y-107810350D02*
X114934800Y-107710350D01*
X114934800Y-107710350D02*
X115001466Y-107643684D01*
X115001466Y-107643684D02*
X115068133Y-107610350D01*
X115068133Y-107610350D02*
X115201466Y-107577017D01*
X115201466Y-107577017D02*
X115301466Y-107577017D01*
X115301466Y-107577017D02*
X115434800Y-107610350D01*
X115434800Y-107610350D02*
X115501466Y-107643684D01*
X115501466Y-107643684D02*
X115568133Y-107710350D01*
X115568133Y-107710350D02*
X115601466Y-107810350D01*
X115601466Y-107810350D02*
X115601466Y-107877017D01*
X115601466Y-107877017D02*
X115568133Y-107977017D01*
X115568133Y-107977017D02*
X115534800Y-108010350D01*
X84966180Y-104730779D02*
X85966180Y-104730779D01*
X85966180Y-104730779D02*
X85966180Y-105111731D01*
X85966180Y-105111731D02*
X85918561Y-105206969D01*
X85918561Y-105206969D02*
X85870942Y-105254588D01*
X85870942Y-105254588D02*
X85775704Y-105302207D01*
X85775704Y-105302207D02*
X85632847Y-105302207D01*
X85632847Y-105302207D02*
X85537609Y-105254588D01*
X85537609Y-105254588D02*
X85489990Y-105206969D01*
X85489990Y-105206969D02*
X85442371Y-105111731D01*
X85442371Y-105111731D02*
X85442371Y-104730779D01*
X84966180Y-105873636D02*
X85013800Y-105778398D01*
X85013800Y-105778398D02*
X85061419Y-105730779D01*
X85061419Y-105730779D02*
X85156657Y-105683160D01*
X85156657Y-105683160D02*
X85442371Y-105683160D01*
X85442371Y-105683160D02*
X85537609Y-105730779D01*
X85537609Y-105730779D02*
X85585228Y-105778398D01*
X85585228Y-105778398D02*
X85632847Y-105873636D01*
X85632847Y-105873636D02*
X85632847Y-106016493D01*
X85632847Y-106016493D02*
X85585228Y-106111731D01*
X85585228Y-106111731D02*
X85537609Y-106159350D01*
X85537609Y-106159350D02*
X85442371Y-106206969D01*
X85442371Y-106206969D02*
X85156657Y-106206969D01*
X85156657Y-106206969D02*
X85061419Y-106159350D01*
X85061419Y-106159350D02*
X85013800Y-106111731D01*
X85013800Y-106111731D02*
X84966180Y-106016493D01*
X84966180Y-106016493D02*
X84966180Y-105873636D01*
X85632847Y-106540303D02*
X84966180Y-106730779D01*
X84966180Y-106730779D02*
X85442371Y-106921255D01*
X85442371Y-106921255D02*
X84966180Y-107111731D01*
X84966180Y-107111731D02*
X85632847Y-107302207D01*
X85013800Y-108064112D02*
X84966180Y-107968874D01*
X84966180Y-107968874D02*
X84966180Y-107778398D01*
X84966180Y-107778398D02*
X85013800Y-107683160D01*
X85013800Y-107683160D02*
X85109038Y-107635541D01*
X85109038Y-107635541D02*
X85489990Y-107635541D01*
X85489990Y-107635541D02*
X85585228Y-107683160D01*
X85585228Y-107683160D02*
X85632847Y-107778398D01*
X85632847Y-107778398D02*
X85632847Y-107968874D01*
X85632847Y-107968874D02*
X85585228Y-108064112D01*
X85585228Y-108064112D02*
X85489990Y-108111731D01*
X85489990Y-108111731D02*
X85394752Y-108111731D01*
X85394752Y-108111731D02*
X85299514Y-107635541D01*
X84966180Y-108540303D02*
X85632847Y-108540303D01*
X85442371Y-108540303D02*
X85537609Y-108587922D01*
X85537609Y-108587922D02*
X85585228Y-108635541D01*
X85585228Y-108635541D02*
X85632847Y-108730779D01*
X85632847Y-108730779D02*
X85632847Y-108826017D01*
X85489990Y-110254589D02*
X85442371Y-110397446D01*
X85442371Y-110397446D02*
X85394752Y-110445065D01*
X85394752Y-110445065D02*
X85299514Y-110492684D01*
X85299514Y-110492684D02*
X85156657Y-110492684D01*
X85156657Y-110492684D02*
X85061419Y-110445065D01*
X85061419Y-110445065D02*
X85013800Y-110397446D01*
X85013800Y-110397446D02*
X84966180Y-110302208D01*
X84966180Y-110302208D02*
X84966180Y-109921256D01*
X84966180Y-109921256D02*
X85966180Y-109921256D01*
X85966180Y-109921256D02*
X85966180Y-110254589D01*
X85966180Y-110254589D02*
X85918561Y-110349827D01*
X85918561Y-110349827D02*
X85870942Y-110397446D01*
X85870942Y-110397446D02*
X85775704Y-110445065D01*
X85775704Y-110445065D02*
X85680466Y-110445065D01*
X85680466Y-110445065D02*
X85585228Y-110397446D01*
X85585228Y-110397446D02*
X85537609Y-110349827D01*
X85537609Y-110349827D02*
X85489990Y-110254589D01*
X85489990Y-110254589D02*
X85489990Y-109921256D01*
X84966180Y-111064113D02*
X85013800Y-110968875D01*
X85013800Y-110968875D02*
X85061419Y-110921256D01*
X85061419Y-110921256D02*
X85156657Y-110873637D01*
X85156657Y-110873637D02*
X85442371Y-110873637D01*
X85442371Y-110873637D02*
X85537609Y-110921256D01*
X85537609Y-110921256D02*
X85585228Y-110968875D01*
X85585228Y-110968875D02*
X85632847Y-111064113D01*
X85632847Y-111064113D02*
X85632847Y-111206970D01*
X85632847Y-111206970D02*
X85585228Y-111302208D01*
X85585228Y-111302208D02*
X85537609Y-111349827D01*
X85537609Y-111349827D02*
X85442371Y-111397446D01*
X85442371Y-111397446D02*
X85156657Y-111397446D01*
X85156657Y-111397446D02*
X85061419Y-111349827D01*
X85061419Y-111349827D02*
X85013800Y-111302208D01*
X85013800Y-111302208D02*
X84966180Y-111206970D01*
X84966180Y-111206970D02*
X84966180Y-111064113D01*
X84966180Y-112254589D02*
X85489990Y-112254589D01*
X85489990Y-112254589D02*
X85585228Y-112206970D01*
X85585228Y-112206970D02*
X85632847Y-112111732D01*
X85632847Y-112111732D02*
X85632847Y-111921256D01*
X85632847Y-111921256D02*
X85585228Y-111826018D01*
X85013800Y-112254589D02*
X84966180Y-112159351D01*
X84966180Y-112159351D02*
X84966180Y-111921256D01*
X84966180Y-111921256D02*
X85013800Y-111826018D01*
X85013800Y-111826018D02*
X85109038Y-111778399D01*
X85109038Y-111778399D02*
X85204276Y-111778399D01*
X85204276Y-111778399D02*
X85299514Y-111826018D01*
X85299514Y-111826018D02*
X85347133Y-111921256D01*
X85347133Y-111921256D02*
X85347133Y-112159351D01*
X85347133Y-112159351D02*
X85394752Y-112254589D01*
X84966180Y-112730780D02*
X85632847Y-112730780D01*
X85442371Y-112730780D02*
X85537609Y-112778399D01*
X85537609Y-112778399D02*
X85585228Y-112826018D01*
X85585228Y-112826018D02*
X85632847Y-112921256D01*
X85632847Y-112921256D02*
X85632847Y-113016494D01*
X84966180Y-113778399D02*
X85966180Y-113778399D01*
X85013800Y-113778399D02*
X84966180Y-113683161D01*
X84966180Y-113683161D02*
X84966180Y-113492685D01*
X84966180Y-113492685D02*
X85013800Y-113397447D01*
X85013800Y-113397447D02*
X85061419Y-113349828D01*
X85061419Y-113349828D02*
X85156657Y-113302209D01*
X85156657Y-113302209D02*
X85442371Y-113302209D01*
X85442371Y-113302209D02*
X85537609Y-113349828D01*
X85537609Y-113349828D02*
X85585228Y-113397447D01*
X85585228Y-113397447D02*
X85632847Y-113492685D01*
X85632847Y-113492685D02*
X85632847Y-113683161D01*
X85632847Y-113683161D02*
X85585228Y-113778399D01*
X85966180Y-114873638D02*
X84966180Y-115206971D01*
X84966180Y-115206971D02*
X85966180Y-115540304D01*
X85966180Y-116064114D02*
X85966180Y-116159352D01*
X85966180Y-116159352D02*
X85918561Y-116254590D01*
X85918561Y-116254590D02*
X85870942Y-116302209D01*
X85870942Y-116302209D02*
X85775704Y-116349828D01*
X85775704Y-116349828D02*
X85585228Y-116397447D01*
X85585228Y-116397447D02*
X85347133Y-116397447D01*
X85347133Y-116397447D02*
X85156657Y-116349828D01*
X85156657Y-116349828D02*
X85061419Y-116302209D01*
X85061419Y-116302209D02*
X85013800Y-116254590D01*
X85013800Y-116254590D02*
X84966180Y-116159352D01*
X84966180Y-116159352D02*
X84966180Y-116064114D01*
X84966180Y-116064114D02*
X85013800Y-115968876D01*
X85013800Y-115968876D02*
X85061419Y-115921257D01*
X85061419Y-115921257D02*
X85156657Y-115873638D01*
X85156657Y-115873638D02*
X85347133Y-115826019D01*
X85347133Y-115826019D02*
X85585228Y-115826019D01*
X85585228Y-115826019D02*
X85775704Y-115873638D01*
X85775704Y-115873638D02*
X85870942Y-115921257D01*
X85870942Y-115921257D02*
X85918561Y-115968876D01*
X85918561Y-115968876D02*
X85966180Y-116064114D01*
X85061419Y-116826019D02*
X85013800Y-116873638D01*
X85013800Y-116873638D02*
X84966180Y-116826019D01*
X84966180Y-116826019D02*
X85013800Y-116778400D01*
X85013800Y-116778400D02*
X85061419Y-116826019D01*
X85061419Y-116826019D02*
X84966180Y-116826019D01*
X84966180Y-117826018D02*
X84966180Y-117254590D01*
X84966180Y-117540304D02*
X85966180Y-117540304D01*
X85966180Y-117540304D02*
X85823323Y-117445066D01*
X85823323Y-117445066D02*
X85728085Y-117349828D01*
X85728085Y-117349828D02*
X85680466Y-117254590D01*
D11*
X94966318Y-114904762D02*
X93696318Y-114904762D01*
X94845365Y-113574285D02*
X94905842Y-113634761D01*
X94905842Y-113634761D02*
X94966318Y-113816190D01*
X94966318Y-113816190D02*
X94966318Y-113937142D01*
X94966318Y-113937142D02*
X94905842Y-114118571D01*
X94905842Y-114118571D02*
X94784889Y-114239523D01*
X94784889Y-114239523D02*
X94663937Y-114300000D01*
X94663937Y-114300000D02*
X94422032Y-114360476D01*
X94422032Y-114360476D02*
X94240603Y-114360476D01*
X94240603Y-114360476D02*
X93998699Y-114300000D01*
X93998699Y-114300000D02*
X93877746Y-114239523D01*
X93877746Y-114239523D02*
X93756794Y-114118571D01*
X93756794Y-114118571D02*
X93696318Y-113937142D01*
X93696318Y-113937142D02*
X93696318Y-113816190D01*
X93696318Y-113816190D02*
X93756794Y-113634761D01*
X93756794Y-113634761D02*
X93817270Y-113574285D01*
X94966318Y-112364761D02*
X94966318Y-113090476D01*
X94966318Y-112727619D02*
X93696318Y-112727619D01*
X93696318Y-112727619D02*
X93877746Y-112848571D01*
X93877746Y-112848571D02*
X93998699Y-112969523D01*
X93998699Y-112969523D02*
X94059175Y-113090476D01*
D10*
X109093095Y-116548819D02*
X109093095Y-117358342D01*
X109093095Y-117358342D02*
X109140714Y-117453580D01*
X109140714Y-117453580D02*
X109188333Y-117501200D01*
X109188333Y-117501200D02*
X109283571Y-117548819D01*
X109283571Y-117548819D02*
X109474047Y-117548819D01*
X109474047Y-117548819D02*
X109569285Y-117501200D01*
X109569285Y-117501200D02*
X109616904Y-117453580D01*
X109616904Y-117453580D02*
X109664523Y-117358342D01*
X109664523Y-117358342D02*
X109664523Y-116548819D01*
X110093095Y-116644057D02*
X110140714Y-116596438D01*
X110140714Y-116596438D02*
X110235952Y-116548819D01*
X110235952Y-116548819D02*
X110474047Y-116548819D01*
X110474047Y-116548819D02*
X110569285Y-116596438D01*
X110569285Y-116596438D02*
X110616904Y-116644057D01*
X110616904Y-116644057D02*
X110664523Y-116739295D01*
X110664523Y-116739295D02*
X110664523Y-116834533D01*
X110664523Y-116834533D02*
X110616904Y-116977390D01*
X110616904Y-116977390D02*
X110045476Y-117548819D01*
X110045476Y-117548819D02*
X110664523Y-117548819D01*
X110863142Y-95450819D02*
X110529809Y-94974628D01*
X110291714Y-95450819D02*
X110291714Y-94450819D01*
X110291714Y-94450819D02*
X110672666Y-94450819D01*
X110672666Y-94450819D02*
X110767904Y-94498438D01*
X110767904Y-94498438D02*
X110815523Y-94546057D01*
X110815523Y-94546057D02*
X110863142Y-94641295D01*
X110863142Y-94641295D02*
X110863142Y-94784152D01*
X110863142Y-94784152D02*
X110815523Y-94879390D01*
X110815523Y-94879390D02*
X110767904Y-94927009D01*
X110767904Y-94927009D02*
X110672666Y-94974628D01*
X110672666Y-94974628D02*
X110291714Y-94974628D01*
X111815523Y-95450819D02*
X111244095Y-95450819D01*
X111529809Y-95450819D02*
X111529809Y-94450819D01*
X111529809Y-94450819D02*
X111434571Y-94593676D01*
X111434571Y-94593676D02*
X111339333Y-94688914D01*
X111339333Y-94688914D02*
X111244095Y-94736533D01*
X112434571Y-94450819D02*
X112529809Y-94450819D01*
X112529809Y-94450819D02*
X112625047Y-94498438D01*
X112625047Y-94498438D02*
X112672666Y-94546057D01*
X112672666Y-94546057D02*
X112720285Y-94641295D01*
X112720285Y-94641295D02*
X112767904Y-94831771D01*
X112767904Y-94831771D02*
X112767904Y-95069866D01*
X112767904Y-95069866D02*
X112720285Y-95260342D01*
X112720285Y-95260342D02*
X112672666Y-95355580D01*
X112672666Y-95355580D02*
X112625047Y-95403200D01*
X112625047Y-95403200D02*
X112529809Y-95450819D01*
X112529809Y-95450819D02*
X112434571Y-95450819D01*
X112434571Y-95450819D02*
X112339333Y-95403200D01*
X112339333Y-95403200D02*
X112291714Y-95355580D01*
X112291714Y-95355580D02*
X112244095Y-95260342D01*
X112244095Y-95260342D02*
X112196476Y-95069866D01*
X112196476Y-95069866D02*
X112196476Y-94831771D01*
X112196476Y-94831771D02*
X112244095Y-94641295D01*
X112244095Y-94641295D02*
X112291714Y-94546057D01*
X112291714Y-94546057D02*
X112339333Y-94498438D01*
X112339333Y-94498438D02*
X112434571Y-94450819D01*
X113752333Y-95450819D02*
X113419000Y-94974628D01*
X113180905Y-95450819D02*
X113180905Y-94450819D01*
X113180905Y-94450819D02*
X113561857Y-94450819D01*
X113561857Y-94450819D02*
X113657095Y-94498438D01*
X113657095Y-94498438D02*
X113704714Y-94546057D01*
X113704714Y-94546057D02*
X113752333Y-94641295D01*
X113752333Y-94641295D02*
X113752333Y-94784152D01*
X113752333Y-94784152D02*
X113704714Y-94879390D01*
X113704714Y-94879390D02*
X113657095Y-94927009D01*
X113657095Y-94927009D02*
X113561857Y-94974628D01*
X113561857Y-94974628D02*
X113180905Y-94974628D01*
X114228524Y-95450819D02*
X114419000Y-95450819D01*
X114419000Y-95450819D02*
X114514238Y-95403200D01*
X114514238Y-95403200D02*
X114561857Y-95355580D01*
X114561857Y-95355580D02*
X114657095Y-95212723D01*
X114657095Y-95212723D02*
X114704714Y-95022247D01*
X114704714Y-95022247D02*
X114704714Y-94641295D01*
X114704714Y-94641295D02*
X114657095Y-94546057D01*
X114657095Y-94546057D02*
X114609476Y-94498438D01*
X114609476Y-94498438D02*
X114514238Y-94450819D01*
X114514238Y-94450819D02*
X114323762Y-94450819D01*
X114323762Y-94450819D02*
X114228524Y-94498438D01*
X114228524Y-94498438D02*
X114180905Y-94546057D01*
X114180905Y-94546057D02*
X114133286Y-94641295D01*
X114133286Y-94641295D02*
X114133286Y-94879390D01*
X114133286Y-94879390D02*
X114180905Y-94974628D01*
X114180905Y-94974628D02*
X114228524Y-95022247D01*
X114228524Y-95022247D02*
X114323762Y-95069866D01*
X114323762Y-95069866D02*
X114514238Y-95069866D01*
X114514238Y-95069866D02*
X114609476Y-95022247D01*
X114609476Y-95022247D02*
X114657095Y-94974628D01*
X114657095Y-94974628D02*
X114704714Y-94879390D01*
X111662833Y-126438819D02*
X111329500Y-125962628D01*
X111091405Y-126438819D02*
X111091405Y-125438819D01*
X111091405Y-125438819D02*
X111472357Y-125438819D01*
X111472357Y-125438819D02*
X111567595Y-125486438D01*
X111567595Y-125486438D02*
X111615214Y-125534057D01*
X111615214Y-125534057D02*
X111662833Y-125629295D01*
X111662833Y-125629295D02*
X111662833Y-125772152D01*
X111662833Y-125772152D02*
X111615214Y-125867390D01*
X111615214Y-125867390D02*
X111567595Y-125915009D01*
X111567595Y-125915009D02*
X111472357Y-125962628D01*
X111472357Y-125962628D02*
X111091405Y-125962628D01*
X112519976Y-125438819D02*
X112329500Y-125438819D01*
X112329500Y-125438819D02*
X112234262Y-125486438D01*
X112234262Y-125486438D02*
X112186643Y-125534057D01*
X112186643Y-125534057D02*
X112091405Y-125676914D01*
X112091405Y-125676914D02*
X112043786Y-125867390D01*
X112043786Y-125867390D02*
X112043786Y-126248342D01*
X112043786Y-126248342D02*
X112091405Y-126343580D01*
X112091405Y-126343580D02*
X112139024Y-126391200D01*
X112139024Y-126391200D02*
X112234262Y-126438819D01*
X112234262Y-126438819D02*
X112424738Y-126438819D01*
X112424738Y-126438819D02*
X112519976Y-126391200D01*
X112519976Y-126391200D02*
X112567595Y-126343580D01*
X112567595Y-126343580D02*
X112615214Y-126248342D01*
X112615214Y-126248342D02*
X112615214Y-126010247D01*
X112615214Y-126010247D02*
X112567595Y-125915009D01*
X112567595Y-125915009D02*
X112519976Y-125867390D01*
X112519976Y-125867390D02*
X112424738Y-125819771D01*
X112424738Y-125819771D02*
X112234262Y-125819771D01*
X112234262Y-125819771D02*
X112139024Y-125867390D01*
X112139024Y-125867390D02*
X112091405Y-125915009D01*
X112091405Y-125915009D02*
X112043786Y-126010247D01*
X104100333Y-121231819D02*
X103767000Y-120755628D01*
X103528905Y-121231819D02*
X103528905Y-120231819D01*
X103528905Y-120231819D02*
X103909857Y-120231819D01*
X103909857Y-120231819D02*
X104005095Y-120279438D01*
X104005095Y-120279438D02*
X104052714Y-120327057D01*
X104052714Y-120327057D02*
X104100333Y-120422295D01*
X104100333Y-120422295D02*
X104100333Y-120565152D01*
X104100333Y-120565152D02*
X104052714Y-120660390D01*
X104052714Y-120660390D02*
X104005095Y-120708009D01*
X104005095Y-120708009D02*
X103909857Y-120755628D01*
X103909857Y-120755628D02*
X103528905Y-120755628D01*
X104957476Y-120565152D02*
X104957476Y-121231819D01*
X104719381Y-120184200D02*
X104481286Y-120898485D01*
X104481286Y-120898485D02*
X105100333Y-120898485D01*
X100544333Y-122501819D02*
X100211000Y-122025628D01*
X99972905Y-122501819D02*
X99972905Y-121501819D01*
X99972905Y-121501819D02*
X100353857Y-121501819D01*
X100353857Y-121501819D02*
X100449095Y-121549438D01*
X100449095Y-121549438D02*
X100496714Y-121597057D01*
X100496714Y-121597057D02*
X100544333Y-121692295D01*
X100544333Y-121692295D02*
X100544333Y-121835152D01*
X100544333Y-121835152D02*
X100496714Y-121930390D01*
X100496714Y-121930390D02*
X100449095Y-121978009D01*
X100449095Y-121978009D02*
X100353857Y-122025628D01*
X100353857Y-122025628D02*
X99972905Y-122025628D01*
X100877667Y-121501819D02*
X101496714Y-121501819D01*
X101496714Y-121501819D02*
X101163381Y-121882771D01*
X101163381Y-121882771D02*
X101306238Y-121882771D01*
X101306238Y-121882771D02*
X101401476Y-121930390D01*
X101401476Y-121930390D02*
X101449095Y-121978009D01*
X101449095Y-121978009D02*
X101496714Y-122073247D01*
X101496714Y-122073247D02*
X101496714Y-122311342D01*
X101496714Y-122311342D02*
X101449095Y-122406580D01*
X101449095Y-122406580D02*
X101401476Y-122454200D01*
X101401476Y-122454200D02*
X101306238Y-122501819D01*
X101306238Y-122501819D02*
X101020524Y-122501819D01*
X101020524Y-122501819D02*
X100925286Y-122454200D01*
X100925286Y-122454200D02*
X100877667Y-122406580D01*
X108164333Y-119326819D02*
X107831000Y-118850628D01*
X107592905Y-119326819D02*
X107592905Y-118326819D01*
X107592905Y-118326819D02*
X107973857Y-118326819D01*
X107973857Y-118326819D02*
X108069095Y-118374438D01*
X108069095Y-118374438D02*
X108116714Y-118422057D01*
X108116714Y-118422057D02*
X108164333Y-118517295D01*
X108164333Y-118517295D02*
X108164333Y-118660152D01*
X108164333Y-118660152D02*
X108116714Y-118755390D01*
X108116714Y-118755390D02*
X108069095Y-118803009D01*
X108069095Y-118803009D02*
X107973857Y-118850628D01*
X107973857Y-118850628D02*
X107592905Y-118850628D01*
X108545286Y-118422057D02*
X108592905Y-118374438D01*
X108592905Y-118374438D02*
X108688143Y-118326819D01*
X108688143Y-118326819D02*
X108926238Y-118326819D01*
X108926238Y-118326819D02*
X109021476Y-118374438D01*
X109021476Y-118374438D02*
X109069095Y-118422057D01*
X109069095Y-118422057D02*
X109116714Y-118517295D01*
X109116714Y-118517295D02*
X109116714Y-118612533D01*
X109116714Y-118612533D02*
X109069095Y-118755390D01*
X109069095Y-118755390D02*
X108497667Y-119326819D01*
X108497667Y-119326819D02*
X109116714Y-119326819D01*
X108291333Y-121358819D02*
X107958000Y-120882628D01*
X107719905Y-121358819D02*
X107719905Y-120358819D01*
X107719905Y-120358819D02*
X108100857Y-120358819D01*
X108100857Y-120358819D02*
X108196095Y-120406438D01*
X108196095Y-120406438D02*
X108243714Y-120454057D01*
X108243714Y-120454057D02*
X108291333Y-120549295D01*
X108291333Y-120549295D02*
X108291333Y-120692152D01*
X108291333Y-120692152D02*
X108243714Y-120787390D01*
X108243714Y-120787390D02*
X108196095Y-120835009D01*
X108196095Y-120835009D02*
X108100857Y-120882628D01*
X108100857Y-120882628D02*
X107719905Y-120882628D01*
X109243714Y-121358819D02*
X108672286Y-121358819D01*
X108958000Y-121358819D02*
X108958000Y-120358819D01*
X108958000Y-120358819D02*
X108862762Y-120501676D01*
X108862762Y-120501676D02*
X108767524Y-120596914D01*
X108767524Y-120596914D02*
X108672286Y-120644533D01*
X97387580Y-97260666D02*
X97435200Y-97308285D01*
X97435200Y-97308285D02*
X97482819Y-97451142D01*
X97482819Y-97451142D02*
X97482819Y-97546380D01*
X97482819Y-97546380D02*
X97435200Y-97689237D01*
X97435200Y-97689237D02*
X97339961Y-97784475D01*
X97339961Y-97784475D02*
X97244723Y-97832094D01*
X97244723Y-97832094D02*
X97054247Y-97879713D01*
X97054247Y-97879713D02*
X96911390Y-97879713D01*
X96911390Y-97879713D02*
X96720914Y-97832094D01*
X96720914Y-97832094D02*
X96625676Y-97784475D01*
X96625676Y-97784475D02*
X96530438Y-97689237D01*
X96530438Y-97689237D02*
X96482819Y-97546380D01*
X96482819Y-97546380D02*
X96482819Y-97451142D01*
X96482819Y-97451142D02*
X96530438Y-97308285D01*
X96530438Y-97308285D02*
X96578057Y-97260666D01*
X96911390Y-96689237D02*
X96863771Y-96784475D01*
X96863771Y-96784475D02*
X96816152Y-96832094D01*
X96816152Y-96832094D02*
X96720914Y-96879713D01*
X96720914Y-96879713D02*
X96673295Y-96879713D01*
X96673295Y-96879713D02*
X96578057Y-96832094D01*
X96578057Y-96832094D02*
X96530438Y-96784475D01*
X96530438Y-96784475D02*
X96482819Y-96689237D01*
X96482819Y-96689237D02*
X96482819Y-96498761D01*
X96482819Y-96498761D02*
X96530438Y-96403523D01*
X96530438Y-96403523D02*
X96578057Y-96355904D01*
X96578057Y-96355904D02*
X96673295Y-96308285D01*
X96673295Y-96308285D02*
X96720914Y-96308285D01*
X96720914Y-96308285D02*
X96816152Y-96355904D01*
X96816152Y-96355904D02*
X96863771Y-96403523D01*
X96863771Y-96403523D02*
X96911390Y-96498761D01*
X96911390Y-96498761D02*
X96911390Y-96689237D01*
X96911390Y-96689237D02*
X96959009Y-96784475D01*
X96959009Y-96784475D02*
X97006628Y-96832094D01*
X97006628Y-96832094D02*
X97101866Y-96879713D01*
X97101866Y-96879713D02*
X97292342Y-96879713D01*
X97292342Y-96879713D02*
X97387580Y-96832094D01*
X97387580Y-96832094D02*
X97435200Y-96784475D01*
X97435200Y-96784475D02*
X97482819Y-96689237D01*
X97482819Y-96689237D02*
X97482819Y-96498761D01*
X97482819Y-96498761D02*
X97435200Y-96403523D01*
X97435200Y-96403523D02*
X97387580Y-96355904D01*
X97387580Y-96355904D02*
X97292342Y-96308285D01*
X97292342Y-96308285D02*
X97101866Y-96308285D01*
X97101866Y-96308285D02*
X97006628Y-96355904D01*
X97006628Y-96355904D02*
X96959009Y-96403523D01*
X96959009Y-96403523D02*
X96911390Y-96498761D01*
X97514580Y-101070666D02*
X97562200Y-101118285D01*
X97562200Y-101118285D02*
X97609819Y-101261142D01*
X97609819Y-101261142D02*
X97609819Y-101356380D01*
X97609819Y-101356380D02*
X97562200Y-101499237D01*
X97562200Y-101499237D02*
X97466961Y-101594475D01*
X97466961Y-101594475D02*
X97371723Y-101642094D01*
X97371723Y-101642094D02*
X97181247Y-101689713D01*
X97181247Y-101689713D02*
X97038390Y-101689713D01*
X97038390Y-101689713D02*
X96847914Y-101642094D01*
X96847914Y-101642094D02*
X96752676Y-101594475D01*
X96752676Y-101594475D02*
X96657438Y-101499237D01*
X96657438Y-101499237D02*
X96609819Y-101356380D01*
X96609819Y-101356380D02*
X96609819Y-101261142D01*
X96609819Y-101261142D02*
X96657438Y-101118285D01*
X96657438Y-101118285D02*
X96705057Y-101070666D01*
X96609819Y-100737332D02*
X96609819Y-100070666D01*
X96609819Y-100070666D02*
X97609819Y-100499237D01*
X97115333Y-103229580D02*
X97067714Y-103277200D01*
X97067714Y-103277200D02*
X96924857Y-103324819D01*
X96924857Y-103324819D02*
X96829619Y-103324819D01*
X96829619Y-103324819D02*
X96686762Y-103277200D01*
X96686762Y-103277200D02*
X96591524Y-103181961D01*
X96591524Y-103181961D02*
X96543905Y-103086723D01*
X96543905Y-103086723D02*
X96496286Y-102896247D01*
X96496286Y-102896247D02*
X96496286Y-102753390D01*
X96496286Y-102753390D02*
X96543905Y-102562914D01*
X96543905Y-102562914D02*
X96591524Y-102467676D01*
X96591524Y-102467676D02*
X96686762Y-102372438D01*
X96686762Y-102372438D02*
X96829619Y-102324819D01*
X96829619Y-102324819D02*
X96924857Y-102324819D01*
X96924857Y-102324819D02*
X97067714Y-102372438D01*
X97067714Y-102372438D02*
X97115333Y-102420057D01*
X97972476Y-102324819D02*
X97782000Y-102324819D01*
X97782000Y-102324819D02*
X97686762Y-102372438D01*
X97686762Y-102372438D02*
X97639143Y-102420057D01*
X97639143Y-102420057D02*
X97543905Y-102562914D01*
X97543905Y-102562914D02*
X97496286Y-102753390D01*
X97496286Y-102753390D02*
X97496286Y-103134342D01*
X97496286Y-103134342D02*
X97543905Y-103229580D01*
X97543905Y-103229580D02*
X97591524Y-103277200D01*
X97591524Y-103277200D02*
X97686762Y-103324819D01*
X97686762Y-103324819D02*
X97877238Y-103324819D01*
X97877238Y-103324819D02*
X97972476Y-103277200D01*
X97972476Y-103277200D02*
X98020095Y-103229580D01*
X98020095Y-103229580D02*
X98067714Y-103134342D01*
X98067714Y-103134342D02*
X98067714Y-102896247D01*
X98067714Y-102896247D02*
X98020095Y-102801009D01*
X98020095Y-102801009D02*
X97972476Y-102753390D01*
X97972476Y-102753390D02*
X97877238Y-102705771D01*
X97877238Y-102705771D02*
X97686762Y-102705771D01*
X97686762Y-102705771D02*
X97591524Y-102753390D01*
X97591524Y-102753390D02*
X97543905Y-102801009D01*
X97543905Y-102801009D02*
X97496286Y-102896247D01*
X97247333Y-108719580D02*
X97199714Y-108767200D01*
X97199714Y-108767200D02*
X97056857Y-108814819D01*
X97056857Y-108814819D02*
X96961619Y-108814819D01*
X96961619Y-108814819D02*
X96818762Y-108767200D01*
X96818762Y-108767200D02*
X96723524Y-108671961D01*
X96723524Y-108671961D02*
X96675905Y-108576723D01*
X96675905Y-108576723D02*
X96628286Y-108386247D01*
X96628286Y-108386247D02*
X96628286Y-108243390D01*
X96628286Y-108243390D02*
X96675905Y-108052914D01*
X96675905Y-108052914D02*
X96723524Y-107957676D01*
X96723524Y-107957676D02*
X96818762Y-107862438D01*
X96818762Y-107862438D02*
X96961619Y-107814819D01*
X96961619Y-107814819D02*
X97056857Y-107814819D01*
X97056857Y-107814819D02*
X97199714Y-107862438D01*
X97199714Y-107862438D02*
X97247333Y-107910057D01*
X98152095Y-107814819D02*
X97675905Y-107814819D01*
X97675905Y-107814819D02*
X97628286Y-108291009D01*
X97628286Y-108291009D02*
X97675905Y-108243390D01*
X97675905Y-108243390D02*
X97771143Y-108195771D01*
X97771143Y-108195771D02*
X98009238Y-108195771D01*
X98009238Y-108195771D02*
X98104476Y-108243390D01*
X98104476Y-108243390D02*
X98152095Y-108291009D01*
X98152095Y-108291009D02*
X98199714Y-108386247D01*
X98199714Y-108386247D02*
X98199714Y-108624342D01*
X98199714Y-108624342D02*
X98152095Y-108719580D01*
X98152095Y-108719580D02*
X98104476Y-108767200D01*
X98104476Y-108767200D02*
X98009238Y-108814819D01*
X98009238Y-108814819D02*
X97771143Y-108814819D01*
X97771143Y-108814819D02*
X97675905Y-108767200D01*
X97675905Y-108767200D02*
X97628286Y-108719580D01*
X101433333Y-105515580D02*
X101385714Y-105563200D01*
X101385714Y-105563200D02*
X101242857Y-105610819D01*
X101242857Y-105610819D02*
X101147619Y-105610819D01*
X101147619Y-105610819D02*
X101004762Y-105563200D01*
X101004762Y-105563200D02*
X100909524Y-105467961D01*
X100909524Y-105467961D02*
X100861905Y-105372723D01*
X100861905Y-105372723D02*
X100814286Y-105182247D01*
X100814286Y-105182247D02*
X100814286Y-105039390D01*
X100814286Y-105039390D02*
X100861905Y-104848914D01*
X100861905Y-104848914D02*
X100909524Y-104753676D01*
X100909524Y-104753676D02*
X101004762Y-104658438D01*
X101004762Y-104658438D02*
X101147619Y-104610819D01*
X101147619Y-104610819D02*
X101242857Y-104610819D01*
X101242857Y-104610819D02*
X101385714Y-104658438D01*
X101385714Y-104658438D02*
X101433333Y-104706057D01*
X102290476Y-104944152D02*
X102290476Y-105610819D01*
X102052381Y-104563200D02*
X101814286Y-105277485D01*
X101814286Y-105277485D02*
X102433333Y-105277485D01*
X113117333Y-113037580D02*
X113069714Y-113085200D01*
X113069714Y-113085200D02*
X112926857Y-113132819D01*
X112926857Y-113132819D02*
X112831619Y-113132819D01*
X112831619Y-113132819D02*
X112688762Y-113085200D01*
X112688762Y-113085200D02*
X112593524Y-112989961D01*
X112593524Y-112989961D02*
X112545905Y-112894723D01*
X112545905Y-112894723D02*
X112498286Y-112704247D01*
X112498286Y-112704247D02*
X112498286Y-112561390D01*
X112498286Y-112561390D02*
X112545905Y-112370914D01*
X112545905Y-112370914D02*
X112593524Y-112275676D01*
X112593524Y-112275676D02*
X112688762Y-112180438D01*
X112688762Y-112180438D02*
X112831619Y-112132819D01*
X112831619Y-112132819D02*
X112926857Y-112132819D01*
X112926857Y-112132819D02*
X113069714Y-112180438D01*
X113069714Y-112180438D02*
X113117333Y-112228057D01*
X113450667Y-112132819D02*
X114069714Y-112132819D01*
X114069714Y-112132819D02*
X113736381Y-112513771D01*
X113736381Y-112513771D02*
X113879238Y-112513771D01*
X113879238Y-112513771D02*
X113974476Y-112561390D01*
X113974476Y-112561390D02*
X114022095Y-112609009D01*
X114022095Y-112609009D02*
X114069714Y-112704247D01*
X114069714Y-112704247D02*
X114069714Y-112942342D01*
X114069714Y-112942342D02*
X114022095Y-113037580D01*
X114022095Y-113037580D02*
X113974476Y-113085200D01*
X113974476Y-113085200D02*
X113879238Y-113132819D01*
X113879238Y-113132819D02*
X113593524Y-113132819D01*
X113593524Y-113132819D02*
X113498286Y-113085200D01*
X113498286Y-113085200D02*
X113450667Y-113037580D01*
X112863333Y-118215580D02*
X112815714Y-118263200D01*
X112815714Y-118263200D02*
X112672857Y-118310819D01*
X112672857Y-118310819D02*
X112577619Y-118310819D01*
X112577619Y-118310819D02*
X112434762Y-118263200D01*
X112434762Y-118263200D02*
X112339524Y-118167961D01*
X112339524Y-118167961D02*
X112291905Y-118072723D01*
X112291905Y-118072723D02*
X112244286Y-117882247D01*
X112244286Y-117882247D02*
X112244286Y-117739390D01*
X112244286Y-117739390D02*
X112291905Y-117548914D01*
X112291905Y-117548914D02*
X112339524Y-117453676D01*
X112339524Y-117453676D02*
X112434762Y-117358438D01*
X112434762Y-117358438D02*
X112577619Y-117310819D01*
X112577619Y-117310819D02*
X112672857Y-117310819D01*
X112672857Y-117310819D02*
X112815714Y-117358438D01*
X112815714Y-117358438D02*
X112863333Y-117406057D01*
X113244286Y-117406057D02*
X113291905Y-117358438D01*
X113291905Y-117358438D02*
X113387143Y-117310819D01*
X113387143Y-117310819D02*
X113625238Y-117310819D01*
X113625238Y-117310819D02*
X113720476Y-117358438D01*
X113720476Y-117358438D02*
X113768095Y-117406057D01*
X113768095Y-117406057D02*
X113815714Y-117501295D01*
X113815714Y-117501295D02*
X113815714Y-117596533D01*
X113815714Y-117596533D02*
X113768095Y-117739390D01*
X113768095Y-117739390D02*
X113196667Y-118310819D01*
X113196667Y-118310819D02*
X113815714Y-118310819D01*
X99782333Y-117580580D02*
X99734714Y-117628200D01*
X99734714Y-117628200D02*
X99591857Y-117675819D01*
X99591857Y-117675819D02*
X99496619Y-117675819D01*
X99496619Y-117675819D02*
X99353762Y-117628200D01*
X99353762Y-117628200D02*
X99258524Y-117532961D01*
X99258524Y-117532961D02*
X99210905Y-117437723D01*
X99210905Y-117437723D02*
X99163286Y-117247247D01*
X99163286Y-117247247D02*
X99163286Y-117104390D01*
X99163286Y-117104390D02*
X99210905Y-116913914D01*
X99210905Y-116913914D02*
X99258524Y-116818676D01*
X99258524Y-116818676D02*
X99353762Y-116723438D01*
X99353762Y-116723438D02*
X99496619Y-116675819D01*
X99496619Y-116675819D02*
X99591857Y-116675819D01*
X99591857Y-116675819D02*
X99734714Y-116723438D01*
X99734714Y-116723438D02*
X99782333Y-116771057D01*
X100734714Y-117675819D02*
X100163286Y-117675819D01*
X100449000Y-117675819D02*
X100449000Y-116675819D01*
X100449000Y-116675819D02*
X100353762Y-116818676D01*
X100353762Y-116818676D02*
X100258524Y-116913914D01*
X100258524Y-116913914D02*
X100163286Y-116961533D01*
D12*
%TO.C,*%
X97564000Y-96406000D02*
G75*
G03*
X97564000Y-96606000I0J-100000D01*
G01*
X97564000Y-96606000D02*
G75*
G03*
X97564000Y-96406000I0J100000D01*
G01*
X97564000Y-96606000D02*
X97564000Y-96606000D01*
X97564000Y-96406000D02*
X97564000Y-96406000D01*
D13*
X101764000Y-95526000D02*
X107864000Y-95526000D01*
X101764000Y-102086000D02*
X101764000Y-95526000D01*
X107864000Y-102086000D02*
X101764000Y-102086000D01*
%TO.C,IC1*%
X90292000Y-112395000D02*
X90292000Y-112395000D01*
X90192000Y-112395000D02*
X90192000Y-112395000D01*
D12*
X92592000Y-116110000D02*
X96192000Y-116110000D01*
X92592000Y-111220000D02*
X96192000Y-111220000D01*
D13*
X90292000Y-112395000D02*
G75*
G03*
X90192000Y-112395000I-50000J0D01*
G01*
X90192000Y-112395000D02*
G75*
G03*
X90292000Y-112395000I50000J0D01*
G01*
D14*
%TO.C,U2*%
X110352000Y-108342000D02*
X110352000Y-108817000D01*
X109877000Y-115562000D02*
X110352000Y-115562000D01*
X109877000Y-108342000D02*
X110352000Y-108342000D01*
X103607000Y-115562000D02*
X103132000Y-115562000D01*
X103607000Y-108342000D02*
X103132000Y-108342000D01*
X103132000Y-115562000D02*
X103132000Y-115087000D01*
X103132000Y-108342000D02*
X103132000Y-108817000D01*
%TO.C,TP9*%
X102038000Y-111944000D02*
X99638000Y-111944000D01*
X99638000Y-111944000D02*
X99638000Y-109544000D01*
X99638000Y-109544000D02*
X102038000Y-109544000D01*
X102038000Y-109544000D02*
X102038000Y-111944000D01*
%TO.C,TP6*%
X114484000Y-106102000D02*
X112084000Y-106102000D01*
X112084000Y-106102000D02*
X112084000Y-103702000D01*
X112084000Y-103702000D02*
X114484000Y-103702000D01*
X114484000Y-103702000D02*
X114484000Y-106102000D01*
%TO.C,TP5*%
X114484000Y-109150000D02*
X112084000Y-109150000D01*
X112084000Y-109150000D02*
X112084000Y-106750000D01*
X112084000Y-106750000D02*
X114484000Y-106750000D01*
X114484000Y-106750000D02*
X114484000Y-109150000D01*
%TO.C,R10*%
X111733000Y-97070936D02*
X111733000Y-97525064D01*
X110263000Y-97070936D02*
X110263000Y-97525064D01*
%TO.C,R9*%
X114527000Y-97070936D02*
X114527000Y-97525064D01*
X113057000Y-97070936D02*
X113057000Y-97525064D01*
%TO.C,R6*%
X110914500Y-125756936D02*
X110914500Y-126211064D01*
X109444500Y-125756936D02*
X109444500Y-126211064D01*
%TO.C,R4*%
X103294500Y-120422936D02*
X103294500Y-120877064D01*
X101824500Y-120422936D02*
X101824500Y-120877064D01*
%TO.C,R3*%
X99284500Y-124703064D02*
X99284500Y-124248936D01*
X100754500Y-124703064D02*
X100754500Y-124248936D01*
%TO.C,R2*%
X107104500Y-119607064D02*
X107104500Y-119152936D01*
X105634500Y-119607064D02*
X105634500Y-119152936D01*
%TO.C,R1*%
X107612564Y-123163000D02*
X107158436Y-123163000D01*
X107612564Y-121693000D02*
X107158436Y-121693000D01*
%TO.C,D4*%
X111958000Y-102961000D02*
X111958000Y-100101000D01*
X110038000Y-100101000D02*
X110038000Y-102961000D01*
X110038000Y-102961000D02*
X111958000Y-102961000D01*
%TO.C,D3*%
X114760000Y-102961000D02*
X114760000Y-100101000D01*
X112840000Y-100101000D02*
X112840000Y-102961000D01*
X112840000Y-102961000D02*
X114760000Y-102961000D01*
%TO.C,C8*%
X95985000Y-97609252D02*
X95985000Y-97086748D01*
X94515000Y-97609252D02*
X94515000Y-97086748D01*
%TO.C,C7*%
X94515000Y-100642748D02*
X94515000Y-101165252D01*
X95985000Y-100642748D02*
X95985000Y-101165252D01*
%TO.C,C6*%
X97609252Y-103913000D02*
X97086748Y-103913000D01*
X97609252Y-105383000D02*
X97086748Y-105383000D01*
%TO.C,C5*%
X97675252Y-105945000D02*
X97152748Y-105945000D01*
X97675252Y-107415000D02*
X97152748Y-107415000D01*
%TO.C,C4*%
X100865000Y-107180748D02*
X100865000Y-107703252D01*
X102335000Y-107180748D02*
X102335000Y-107703252D01*
%TO.C,C3*%
X113545252Y-110263000D02*
X113022748Y-110263000D01*
X113545252Y-111733000D02*
X113022748Y-111733000D01*
%TO.C,C2*%
X112980752Y-115343000D02*
X112458248Y-115343000D01*
X112980752Y-116813000D02*
X112458248Y-116813000D01*
%TO.C,C1*%
X102278500Y-117101252D02*
X102278500Y-116578748D01*
X100808500Y-117101252D02*
X100808500Y-116578748D01*
%TO.C,J4*%
X101799500Y-127622000D02*
X101799500Y-126492000D01*
X102559500Y-127622000D02*
X101799500Y-127622000D01*
X103319500Y-127622000D02*
X108334500Y-127622000D01*
X103319500Y-127622000D02*
X103319500Y-127055471D01*
X108334500Y-127622000D02*
X108334500Y-126799530D01*
X108334500Y-126184470D02*
X108334500Y-125529530D01*
X103319500Y-125928529D02*
X103319500Y-125785471D01*
X101864500Y-125732000D02*
X101864500Y-125529530D01*
X101996029Y-125732000D02*
X101864500Y-125732000D01*
X103266029Y-125732000D02*
X103122971Y-125732000D01*
X101864500Y-124914470D02*
X101864500Y-124092000D01*
X108334500Y-124914470D02*
X108334500Y-124092000D01*
X101864500Y-124092000D02*
X108334500Y-124092000D01*
%TO.C,J2*%
X83560000Y-125750000D02*
X83560000Y-127490000D01*
X83560000Y-127490000D02*
X85060000Y-127490000D01*
X83800000Y-118130000D02*
X83800000Y-127250000D01*
X83800000Y-118130000D02*
X93920000Y-118130000D01*
X83800000Y-125690000D02*
X93920000Y-125690000D01*
X83800000Y-127250000D02*
X93920000Y-127250000D01*
X90180000Y-124166000D02*
X90086000Y-124259000D01*
X90350000Y-124406000D02*
X90291000Y-124464000D01*
X92430000Y-121915000D02*
X92371000Y-121974000D01*
X92635000Y-122121000D02*
X92541000Y-122214000D01*
X93920000Y-118130000D02*
X93920000Y-127250000D01*
X84876000Y-122401000D02*
G75*
G03*
X84876047Y-123979089I1483995J-789000D01*
G01*
X87149000Y-121706000D02*
G75*
G03*
X85570911Y-121706047I-789000J-1483995D01*
G01*
X85571000Y-124673999D02*
G75*
G03*
X86389383Y-124870449I788998J1483994D01*
G01*
X86360000Y-124869999D02*
G75*
G03*
X87148712Y-124673351I0J1679999D01*
G01*
X87844000Y-123979000D02*
G75*
G03*
X87843952Y-122400911I-1484000J789000D01*
G01*
X87260000Y-120190000D02*
G75*
G03*
X85460000Y-120190000I-900000J0D01*
G01*
X85460000Y-120190000D02*
G75*
G03*
X87260000Y-120190000I900000J0D01*
G01*
X92260000Y-120190000D02*
G75*
G03*
X90460000Y-120190000I-900000J0D01*
G01*
X90460000Y-120190000D02*
G75*
G03*
X92260000Y-120190000I900000J0D01*
G01*
X93040000Y-123190000D02*
G75*
G03*
X89680000Y-123190000I-1680000J0D01*
G01*
X89680000Y-123190000D02*
G75*
G03*
X93040000Y-123190000I1680000J0D01*
G01*
%TO.C,J1*%
X93986000Y-96500000D02*
X93986000Y-94760000D01*
X93986000Y-94760000D02*
X92486000Y-94760000D01*
X93746000Y-104120000D02*
X93746000Y-95000000D01*
X93746000Y-104120000D02*
X83626000Y-104120000D01*
X93746000Y-96560000D02*
X83626000Y-96560000D01*
X93746000Y-95000000D02*
X83626000Y-95000000D01*
X87366000Y-98084000D02*
X87460000Y-97991000D01*
X87196000Y-97844000D02*
X87255000Y-97786000D01*
X85116000Y-100335000D02*
X85175000Y-100276000D01*
X84911000Y-100129000D02*
X85005000Y-100036000D01*
X83626000Y-104120000D02*
X83626000Y-95000000D01*
X92670000Y-99849000D02*
G75*
G03*
X92669953Y-98270911I-1483995J789000D01*
G01*
X90397000Y-100544000D02*
G75*
G03*
X91975089Y-100543953I789000J1483995D01*
G01*
X91975000Y-97576001D02*
G75*
G03*
X91156617Y-97379551I-788998J-1483994D01*
G01*
X91186000Y-97380001D02*
G75*
G03*
X90397288Y-97576649I0J-1679999D01*
G01*
X89702000Y-98271000D02*
G75*
G03*
X89702048Y-99849089I1484000J-789000D01*
G01*
X92086000Y-102060000D02*
G75*
G03*
X90286000Y-102060000I-900000J0D01*
G01*
X90286000Y-102060000D02*
G75*
G03*
X92086000Y-102060000I900000J0D01*
G01*
X87086000Y-102060000D02*
G75*
G03*
X85286000Y-102060000I-900000J0D01*
G01*
X85286000Y-102060000D02*
G75*
G03*
X87086000Y-102060000I900000J0D01*
G01*
X87866000Y-99060000D02*
G75*
G03*
X84506000Y-99060000I-1680000J0D01*
G01*
X84506000Y-99060000D02*
G75*
G03*
X87866000Y-99060000I1680000J0D01*
G01*
%TO.C,J3*%
X115707500Y-105868000D02*
X117037500Y-105868000D01*
X115707500Y-107198000D02*
X115707500Y-105868000D01*
X115707500Y-108468000D02*
X115707500Y-116148000D01*
X115707500Y-108468000D02*
X118367500Y-108468000D01*
X115707500Y-116148000D02*
X118367500Y-116148000D01*
X118367500Y-108468000D02*
X118367500Y-116148000D01*
%TD*%
M02*
