M48
; DRILL file {KiCad 7.0.10} date Wed Jan 17 14:48:36 2024
; FORMAT={-:-/ absolute / inch / decimal}
; #@! TF.CreationDate,2024-01-17T14:48:36+01:00
; #@! TF.GenerationSoftware,Kicad,Pcbnew,7.0.10
; #@! TF.FileFunction,Plated,1,4,PTH
FMAT,2
INCH
; #@! TA.AperFunction,Plated,PTH,ViaDrill
T1C0.0157
; #@! TA.AperFunction,Plated,PTH,ComponentDrill
T2C0.0256
; #@! TA.AperFunction,Plated,PTH,ComponentDrill
T3C0.0394
; #@! TA.AperFunction,Plated,PTH,ComponentDrill
T4C0.0512
%
G90
G05
T1
X3.32Y-3.98
X3.32Y-4.135
X3.32Y-4.295
X3.32Y-4.455
X3.32Y-4.615
X3.325Y-3.775
X3.325Y-4.76
X3.325Y-4.985
X3.47Y-3.77
X3.47Y-3.98
X3.47Y-4.135
X3.47Y-4.295
X3.47Y-4.455
X3.47Y-4.615
X3.47Y-4.76
X3.47Y-4.99
X3.53Y-4.35
X3.53Y-4.39
X3.53Y-4.43
X3.53Y-4.51
X3.53Y-4.55
X3.53Y-4.59
X3.6Y-4.35
X3.6Y-4.59
X3.67Y-4.35
X3.67Y-4.39
X3.67Y-4.43
X3.67Y-4.51
X3.67Y-4.55
X3.67Y-4.59
X3.73Y-4.345
X3.73Y-4.59
X3.73Y-4.705
X3.73Y-4.805
X3.73Y-4.99
X3.75Y-3.7572
X3.75Y-4.08
X3.75Y-4.12
X3.75Y-4.2
X3.82Y-4.34
X3.825Y-4.27
X3.83Y-3.925
X3.875Y-4.99
X3.88Y-4.605
X3.89Y-4.45
X3.89Y-4.5
X3.9Y-4.795
X3.93Y-4.16
X3.93Y-4.2
X3.93Y-4.24
X3.94Y-4.05
X3.94Y-4.105
X3.98Y-4.71
X3.985Y-3.92
X3.9978Y-4.5278
X4.005Y-3.745
X4.015Y-4.045
X4.06Y-4.64
X4.08Y-4.185
X4.105Y-4.85
X4.115Y-4.045
X4.155Y-3.75
X4.155Y-4.115
X4.19Y-4.61
X4.205Y-4.41
X4.2299Y-4.61
X4.235Y-4.045
X4.25Y-4.74
X4.29Y-4.64
X4.305Y-3.745
X4.335Y-4.78
X4.34Y-4.605
X4.37Y-4.87
X4.38Y-4.26
X4.4Y-4.32
X4.4Y-4.63
X4.4Y-4.71
X4.405Y-4.985
X4.415Y-4.825
X4.42Y-3.79
X4.48Y-4.46
X4.485Y-4.66
X4.515Y-4.99
X4.53Y-4.82
X4.545Y-3.775
X4.545Y-3.86
X4.545Y-3.985
X4.545Y-4.145
X4.63Y-3.775
X4.63Y-4.14
X4.63Y-4.71
X4.63Y-4.985
X4.635Y-3.86
X4.635Y-3.985
X4.635Y-4.855
X4.6351Y-4.605
T2
X4.0378Y-4.93
X4.0378Y-4.98
X4.0878Y-4.93
X4.0878Y-4.98
X4.1378Y-4.93
X4.1378Y-4.98
X4.1878Y-4.93
X4.1878Y-4.98
X4.2378Y-4.93
X4.2378Y-4.98
T3
X4.6078Y-4.2204
X4.6078Y-4.3204
X4.6078Y-4.4204
X4.6078Y-4.5204
T4
X3.3931Y-3.9
X3.4Y-4.85
X3.59Y-3.9
X3.5969Y-4.85
M30
