%TF.GenerationSoftware,KiCad,Pcbnew,7.0.10*%
%TF.CreationDate,2024-01-17T14:48:32+01:00*%
%TF.ProjectId,PowerBoard,506f7765-7242-46f6-9172-642e6b696361,rev?*%
%TF.SameCoordinates,Original*%
%TF.FileFunction,Soldermask,Top*%
%TF.FilePolarity,Negative*%
%FSLAX46Y46*%
G04 Gerber Fmt 4.6, Leading zero omitted, Abs format (unit mm)*
G04 Created by KiCad (PCBNEW 7.0.10) date 2024-01-17 14:48:32*
%MOMM*%
%LPD*%
G01*
G04 APERTURE LIST*
G04 Aperture macros list*
%AMRoundRect*
0 Rectangle with rounded corners*
0 $1 Rounding radius*
0 $2 $3 $4 $5 $6 $7 $8 $9 X,Y pos of 4 corners*
0 Add a 4 corners polygon primitive as box body*
4,1,4,$2,$3,$4,$5,$6,$7,$8,$9,$2,$3,0*
0 Add four circle primitives for the rounded corners*
1,1,$1+$1,$2,$3*
1,1,$1+$1,$4,$5*
1,1,$1+$1,$6,$7*
1,1,$1+$1,$8,$9*
0 Add four rect primitives between the rounded corners*
20,1,$1+$1,$2,$3,$4,$5,0*
20,1,$1+$1,$4,$5,$6,$7,0*
20,1,$1+$1,$6,$7,$8,$9,0*
20,1,$1+$1,$8,$9,$2,$3,0*%
G04 Aperture macros list end*
%ADD10R,2.200000X1.200000*%
%ADD11R,6.400000X5.800000*%
%ADD12R,1.580000X1.920000*%
%ADD13R,1.580000X0.650000*%
%ADD14RoundRect,0.062500X0.596500X0.062500X-0.596500X0.062500X-0.596500X-0.062500X0.596500X-0.062500X0*%
%ADD15RoundRect,0.062500X0.062500X0.596500X-0.062500X0.596500X-0.062500X-0.596500X0.062500X-0.596500X0*%
%ADD16R,5.600000X5.600000*%
%ADD17RoundRect,0.100000X-0.100000X0.130000X-0.100000X-0.130000X0.100000X-0.130000X0.100000X0.130000X0*%
%ADD18R,2.000000X2.000000*%
%ADD19RoundRect,0.250000X-0.450000X0.350000X-0.450000X-0.350000X0.450000X-0.350000X0.450000X0.350000X0*%
%ADD20RoundRect,0.250000X0.450000X-0.350000X0.450000X0.350000X-0.450000X0.350000X-0.450000X-0.350000X0*%
%ADD21RoundRect,0.250000X0.350000X0.450000X-0.350000X0.450000X-0.350000X-0.450000X0.350000X-0.450000X0*%
%ADD22RoundRect,0.250000X0.450000X-0.325000X0.450000X0.325000X-0.450000X0.325000X-0.450000X-0.325000X0*%
%ADD23RoundRect,0.250000X0.475000X-0.250000X0.475000X0.250000X-0.475000X0.250000X-0.475000X-0.250000X0*%
%ADD24RoundRect,0.250000X-0.475000X0.250000X-0.475000X-0.250000X0.475000X-0.250000X0.475000X0.250000X0*%
%ADD25RoundRect,0.250000X0.250000X0.475000X-0.250000X0.475000X-0.250000X-0.475000X0.250000X-0.475000X0*%
%ADD26R,1.000000X1.000000*%
%ADD27O,1.000000X1.000000*%
%ADD28R,2.500000X2.500000*%
%ADD29C,2.500000*%
%ADD30R,1.700000X1.700000*%
%ADD31O,1.700000X1.700000*%
G04 APERTURE END LIST*
D10*
%TO.C,*%
X99364000Y-101086000D03*
D11*
X105664000Y-98806000D03*
D10*
X99364000Y-96526000D03*
%TD*%
D12*
%TO.C,IC1*%
X91502000Y-112395000D03*
X91502000Y-114935000D03*
D13*
X97282000Y-115570000D03*
X97282000Y-114300000D03*
X97282000Y-113030000D03*
X97282000Y-111760000D03*
%TD*%
D14*
%TO.C,U2*%
X110401000Y-114702000D03*
X110401000Y-114202000D03*
X110401000Y-113702000D03*
X110401000Y-113202000D03*
X110401000Y-112702000D03*
X110401000Y-112202000D03*
X110401000Y-111702000D03*
X110401000Y-111202000D03*
X110401000Y-110702000D03*
X110401000Y-110202000D03*
X110401000Y-109702000D03*
X110401000Y-109202000D03*
D15*
X109492000Y-108293000D03*
X108992000Y-108293000D03*
X108492000Y-108293000D03*
X107992000Y-108293000D03*
X107492000Y-108293000D03*
X106992000Y-108293000D03*
X106492000Y-108293000D03*
X105992000Y-108293000D03*
X105492000Y-108293000D03*
X104992000Y-108293000D03*
X104492000Y-108293000D03*
X103992000Y-108293000D03*
D14*
X103083000Y-109202000D03*
X103083000Y-109702000D03*
X103083000Y-110202000D03*
X103083000Y-110702000D03*
X103083000Y-111202000D03*
X103083000Y-111702000D03*
X103083000Y-112202000D03*
X103083000Y-112702000D03*
X103083000Y-113202000D03*
X103083000Y-113702000D03*
X103083000Y-114202000D03*
X103083000Y-114702000D03*
D15*
X103992000Y-115611000D03*
X104492000Y-115611000D03*
X104992000Y-115611000D03*
X105492000Y-115611000D03*
X105992000Y-115611000D03*
X106492000Y-115611000D03*
X106992000Y-115611000D03*
X107492000Y-115611000D03*
X107992000Y-115611000D03*
X108492000Y-115611000D03*
X108992000Y-115611000D03*
X109492000Y-115611000D03*
D16*
X106742000Y-111952000D03*
%TD*%
D17*
%TO.C,R5*%
X111760000Y-113853000D03*
X111760000Y-114493000D03*
%TD*%
D18*
%TO.C,TP9*%
X100838000Y-110744000D03*
%TD*%
%TO.C,TP6*%
X113284000Y-104902000D03*
%TD*%
%TO.C,TP5*%
X113284000Y-107950000D03*
%TD*%
D19*
%TO.C,R10*%
X110998000Y-96298000D03*
X110998000Y-98298000D03*
%TD*%
%TO.C,R9*%
X113792000Y-96298000D03*
X113792000Y-98298000D03*
%TD*%
%TO.C,R6*%
X110179500Y-124984000D03*
X110179500Y-126984000D03*
%TD*%
%TO.C,R4*%
X102559500Y-119650000D03*
X102559500Y-121650000D03*
%TD*%
D20*
%TO.C,R3*%
X100019500Y-125476000D03*
X100019500Y-123476000D03*
%TD*%
%TO.C,R2*%
X106369500Y-118380000D03*
X106369500Y-120380000D03*
%TD*%
D21*
%TO.C,R1*%
X108385500Y-122428000D03*
X106385500Y-122428000D03*
%TD*%
D22*
%TO.C,D4*%
X110998000Y-102126000D03*
X110998000Y-100076000D03*
%TD*%
%TO.C,D3*%
X113800000Y-102126000D03*
X113800000Y-100076000D03*
%TD*%
D23*
%TO.C,C8*%
X95250000Y-98298000D03*
X95250000Y-96398000D03*
%TD*%
D24*
%TO.C,C7*%
X95250000Y-99954000D03*
X95250000Y-101854000D03*
%TD*%
D25*
%TO.C,C6*%
X98298000Y-104648000D03*
X96398000Y-104648000D03*
%TD*%
%TO.C,C5*%
X98364000Y-106680000D03*
X96464000Y-106680000D03*
%TD*%
D24*
%TO.C,C4*%
X101600000Y-106492000D03*
X101600000Y-108392000D03*
%TD*%
D25*
%TO.C,C3*%
X114234000Y-110998000D03*
X112334000Y-110998000D03*
%TD*%
%TO.C,C2*%
X113669500Y-116078000D03*
X111769500Y-116078000D03*
%TD*%
D23*
%TO.C,C1*%
X101543500Y-117790000D03*
X101543500Y-115890000D03*
%TD*%
D26*
%TO.C,J4*%
X102559500Y-126492000D03*
D27*
X102559500Y-125222000D03*
X103829500Y-126492000D03*
X103829500Y-125222000D03*
X105099500Y-126492000D03*
X105099500Y-125222000D03*
X106369500Y-126492000D03*
X106369500Y-125222000D03*
X107639500Y-126492000D03*
X107639500Y-125222000D03*
%TD*%
D28*
%TO.C,J2*%
X86360000Y-123190000D03*
D29*
X91360000Y-123190000D03*
%TD*%
D28*
%TO.C,J1*%
X91186000Y-99060000D03*
D29*
X86186000Y-99060000D03*
%TD*%
D30*
%TO.C,J3*%
X117037500Y-107198000D03*
D31*
X117037500Y-109738000D03*
X117037500Y-112278000D03*
X117037500Y-114818000D03*
%TD*%
M02*
