%TF.GenerationSoftware,KiCad,Pcbnew,7.0.10*%
%TF.CreationDate,2024-01-17T14:48:32+01:00*%
%TF.ProjectId,PowerBoard,506f7765-7242-46f6-9172-642e6b696361,rev?*%
%TF.SameCoordinates,Original*%
%TF.FileFunction,Copper,L2,Inr*%
%TF.FilePolarity,Positive*%
%FSLAX46Y46*%
G04 Gerber Fmt 4.6, Leading zero omitted, Abs format (unit mm)*
G04 Created by KiCad (PCBNEW 7.0.10) date 2024-01-17 14:48:32*
%MOMM*%
%LPD*%
G01*
G04 APERTURE LIST*
%TA.AperFunction,ComponentPad*%
%ADD10R,1.000000X1.000000*%
%TD*%
%TA.AperFunction,ComponentPad*%
%ADD11O,1.000000X1.000000*%
%TD*%
%TA.AperFunction,ComponentPad*%
%ADD12R,2.500000X2.500000*%
%TD*%
%TA.AperFunction,ComponentPad*%
%ADD13C,2.500000*%
%TD*%
%TA.AperFunction,ComponentPad*%
%ADD14R,1.700000X1.700000*%
%TD*%
%TA.AperFunction,ComponentPad*%
%ADD15O,1.700000X1.700000*%
%TD*%
%TA.AperFunction,ViaPad*%
%ADD16C,0.800000*%
%TD*%
G04 APERTURE END LIST*
D10*
%TO.N,VCC*%
%TO.C,J4*%
X102559500Y-126492000D03*
D11*
%TO.N,/JTMS-SWDIO*%
X102559500Y-125222000D03*
%TO.N,GND*%
X103829500Y-126492000D03*
%TO.N,/JTCK-SWCLK*%
X103829500Y-125222000D03*
%TO.N,GND*%
X105099500Y-126492000D03*
%TO.N,/JTDO-SWO*%
X105099500Y-125222000D03*
%TO.N,unconnected-(J4-KEY-Pad7)*%
X106369500Y-126492000D03*
%TO.N,/JTDI*%
X106369500Y-125222000D03*
%TO.N,Net-(J4-GNDDetect)*%
X107639500Y-126492000D03*
%TO.N,/NRST*%
X107639500Y-125222000D03*
%TD*%
D12*
%TO.N,GND*%
%TO.C,J2*%
X86360000Y-123190000D03*
D13*
%TO.N,/Vout*%
X91360000Y-123190000D03*
%TD*%
D12*
%TO.N,/Vin*%
%TO.C,J1*%
X91186000Y-99060000D03*
D13*
%TO.N,GND*%
X86186000Y-99060000D03*
%TD*%
D14*
%TO.N,VCC*%
%TO.C,J3*%
X117037500Y-107198000D03*
D15*
%TO.N,GND*%
X117037500Y-109738000D03*
%TO.N,/SCL*%
X117037500Y-112278000D03*
%TO.N,/SDA*%
X117037500Y-114818000D03*
%TD*%
D16*
%TO.N,GND*%
X106807000Y-112014000D03*
X105537000Y-95250000D03*
X101727000Y-95123000D03*
X109347000Y-95123000D03*
X108966000Y-117856000D03*
X110236000Y-116967000D03*
X111760000Y-119634000D03*
X110109000Y-121412000D03*
X113792000Y-113284000D03*
X105537000Y-104521000D03*
X103632000Y-106299000D03*
X100076000Y-104267000D03*
X100076000Y-102870000D03*
X101219000Y-99568000D03*
X101981000Y-102743000D03*
X104521000Y-102743000D03*
X107569000Y-102743000D03*
X115443000Y-105283000D03*
X115443000Y-101219000D03*
X115443000Y-98044000D03*
X115443000Y-95885000D03*
X117729000Y-101219000D03*
X117729000Y-98044000D03*
X117602000Y-95885000D03*
X117602000Y-105156000D03*
X115062000Y-122428000D03*
X113919000Y-118364000D03*
X117729000Y-123317000D03*
X117602000Y-119634000D03*
X117731640Y-116966926D03*
X117602000Y-126619000D03*
X114681000Y-126746000D03*
X112141000Y-122555000D03*
X111887000Y-126619000D03*
X98552000Y-116967000D03*
X99060000Y-121793000D03*
X98425000Y-126746000D03*
X94742000Y-126746000D03*
X94742000Y-122047000D03*
X94742000Y-119507000D03*
X94742000Y-116586000D03*
X94742000Y-110363000D03*
X97028000Y-110236000D03*
X97155000Y-108458000D03*
X97282000Y-99695000D03*
X88138000Y-113157000D03*
X84328000Y-113157000D03*
X88138000Y-109093000D03*
X84328000Y-109093000D03*
X88138000Y-101092000D03*
X84328000Y-101092000D03*
X84455000Y-95885000D03*
X88138000Y-95758000D03*
X88138000Y-105029000D03*
X84328000Y-105029000D03*
X88138000Y-117221000D03*
X84328000Y-117221000D03*
X88138000Y-120904000D03*
X84455000Y-120904000D03*
X84455000Y-126619000D03*
X88138000Y-126746000D03*
%TO.N,VCC*%
X112268000Y-96266000D03*
X110998000Y-123698000D03*
X111760000Y-117602000D03*
X107950000Y-120396000D03*
X101092000Y-119634000D03*
%TO.N,GND*%
X103124000Y-117856000D03*
%TO.N,VCC*%
X101543500Y-115005500D03*
%TO.N,/Vin*%
X91440000Y-110490000D03*
X93218000Y-110490000D03*
X89662000Y-110490000D03*
X89662000Y-111506000D03*
X89662000Y-112522000D03*
X93218000Y-111506000D03*
X93218000Y-112522000D03*
%TO.N,/Vout*%
X91440000Y-116586000D03*
X89662000Y-116586000D03*
X93218000Y-116586000D03*
X93218000Y-115570000D03*
X89662000Y-115570000D03*
X89662000Y-114554000D03*
X93218000Y-114554000D03*
%TO.N,GND*%
X95250000Y-103632000D03*
X95250000Y-106680000D03*
X95250000Y-104648000D03*
X95250000Y-95434000D03*
%TO.N,/SDA*%
X107438655Y-117094000D03*
%TO.N,/SCL*%
X106426000Y-117094000D03*
%TO.N,/Vref*%
X98806000Y-114300000D03*
%TO.N,/Vouit*%
X98806000Y-113030000D03*
%TO.N,VCC*%
X99822000Y-107696000D03*
X99822000Y-105664000D03*
X99822000Y-106680000D03*
%TO.N,/JTDI*%
X104267000Y-123190000D03*
%TO.N,/Vouit*%
X111252000Y-108204000D03*
%TO.N,/Vref*%
X111760000Y-109728000D03*
%TD*%
%TA.AperFunction,Conductor*%
%TO.N,VCC*%
G36*
X100835249Y-94654185D02*
G01*
X100881004Y-94706989D01*
X100890948Y-94776147D01*
X100886141Y-94796818D01*
X100860826Y-94874731D01*
X100841326Y-94934744D01*
X100821540Y-95123000D01*
X100841326Y-95311256D01*
X100841327Y-95311259D01*
X100899818Y-95491277D01*
X100899821Y-95491284D01*
X100994467Y-95655216D01*
X101108817Y-95782214D01*
X101121129Y-95795888D01*
X101274265Y-95907148D01*
X101274270Y-95907151D01*
X101447192Y-95984142D01*
X101447197Y-95984144D01*
X101632354Y-96023500D01*
X101632355Y-96023500D01*
X101821644Y-96023500D01*
X101821646Y-96023500D01*
X102006803Y-95984144D01*
X102179730Y-95907151D01*
X102332871Y-95795888D01*
X102459533Y-95655216D01*
X102554179Y-95491284D01*
X102612674Y-95311256D01*
X102632460Y-95123000D01*
X102612674Y-94934744D01*
X102567859Y-94796818D01*
X102565864Y-94726977D01*
X102601944Y-94667144D01*
X102664645Y-94636316D01*
X102685790Y-94634500D01*
X104637777Y-94634500D01*
X104704816Y-94654185D01*
X104750571Y-94706989D01*
X104760515Y-94776147D01*
X104745164Y-94820500D01*
X104709821Y-94881715D01*
X104709818Y-94881722D01*
X104663636Y-95023857D01*
X104651326Y-95061744D01*
X104631540Y-95250000D01*
X104651326Y-95438256D01*
X104651327Y-95438259D01*
X104709818Y-95618277D01*
X104709821Y-95618284D01*
X104804467Y-95782216D01*
X104901338Y-95889802D01*
X104931129Y-95922888D01*
X105084265Y-96034148D01*
X105084270Y-96034151D01*
X105257192Y-96111142D01*
X105257197Y-96111144D01*
X105442354Y-96150500D01*
X105442355Y-96150500D01*
X105631644Y-96150500D01*
X105631646Y-96150500D01*
X105816803Y-96111144D01*
X105989730Y-96034151D01*
X106142871Y-95922888D01*
X106269533Y-95782216D01*
X106364179Y-95618284D01*
X106422674Y-95438256D01*
X106442460Y-95250000D01*
X106422674Y-95061744D01*
X106368112Y-94893823D01*
X106364181Y-94881722D01*
X106364180Y-94881721D01*
X106364179Y-94881716D01*
X106328836Y-94820500D01*
X106312363Y-94752599D01*
X106335216Y-94686572D01*
X106390137Y-94643382D01*
X106436223Y-94634500D01*
X108388210Y-94634500D01*
X108455249Y-94654185D01*
X108501004Y-94706989D01*
X108510948Y-94776147D01*
X108506141Y-94796818D01*
X108480826Y-94874731D01*
X108461326Y-94934744D01*
X108441540Y-95123000D01*
X108461326Y-95311256D01*
X108461327Y-95311259D01*
X108519818Y-95491277D01*
X108519821Y-95491284D01*
X108614467Y-95655216D01*
X108728817Y-95782214D01*
X108741129Y-95795888D01*
X108894265Y-95907148D01*
X108894270Y-95907151D01*
X109067192Y-95984142D01*
X109067197Y-95984144D01*
X109252354Y-96023500D01*
X109252355Y-96023500D01*
X109441644Y-96023500D01*
X109441646Y-96023500D01*
X109626803Y-95984144D01*
X109799730Y-95907151D01*
X109830218Y-95885000D01*
X114537540Y-95885000D01*
X114557326Y-96073256D01*
X114557327Y-96073259D01*
X114615818Y-96253277D01*
X114615821Y-96253284D01*
X114710467Y-96417216D01*
X114837129Y-96557888D01*
X114990265Y-96669148D01*
X114990270Y-96669151D01*
X115163192Y-96746142D01*
X115163197Y-96746144D01*
X115348354Y-96785500D01*
X115348355Y-96785500D01*
X115537644Y-96785500D01*
X115537646Y-96785500D01*
X115722803Y-96746144D01*
X115895730Y-96669151D01*
X116048871Y-96557888D01*
X116175533Y-96417216D01*
X116270179Y-96253284D01*
X116328674Y-96073256D01*
X116348460Y-95885000D01*
X116328674Y-95696744D01*
X116270179Y-95516716D01*
X116175533Y-95352784D01*
X116048871Y-95212112D01*
X116010338Y-95184116D01*
X115895734Y-95100851D01*
X115895729Y-95100848D01*
X115722807Y-95023857D01*
X115722802Y-95023855D01*
X115577001Y-94992865D01*
X115537646Y-94984500D01*
X115348354Y-94984500D01*
X115315897Y-94991398D01*
X115163197Y-95023855D01*
X115163192Y-95023857D01*
X114990270Y-95100848D01*
X114990265Y-95100851D01*
X114837129Y-95212111D01*
X114710466Y-95352785D01*
X114615821Y-95516715D01*
X114615818Y-95516722D01*
X114570820Y-95655214D01*
X114557326Y-95696744D01*
X114537540Y-95885000D01*
X109830218Y-95885000D01*
X109952871Y-95795888D01*
X110079533Y-95655216D01*
X110174179Y-95491284D01*
X110232674Y-95311256D01*
X110252460Y-95123000D01*
X110232674Y-94934744D01*
X110187859Y-94796818D01*
X110185864Y-94726977D01*
X110221944Y-94667144D01*
X110284645Y-94636316D01*
X110305790Y-94634500D01*
X117549476Y-94634500D01*
X117576689Y-94637522D01*
X117708361Y-94667144D01*
X117751679Y-94676889D01*
X117770454Y-94682710D01*
X117957694Y-94757506D01*
X117975299Y-94766217D01*
X118148353Y-94869672D01*
X118164368Y-94881062D01*
X118170398Y-94886115D01*
X118209133Y-94944263D01*
X118210281Y-95014123D01*
X118173478Y-95073514D01*
X118110409Y-95103580D01*
X118041096Y-95094775D01*
X118040310Y-95094428D01*
X117881807Y-95023857D01*
X117881802Y-95023855D01*
X117736001Y-94992865D01*
X117696646Y-94984500D01*
X117507354Y-94984500D01*
X117474897Y-94991398D01*
X117322197Y-95023855D01*
X117322192Y-95023857D01*
X117149270Y-95100848D01*
X117149265Y-95100851D01*
X116996129Y-95212111D01*
X116869466Y-95352785D01*
X116774821Y-95516715D01*
X116774818Y-95516722D01*
X116729820Y-95655214D01*
X116716326Y-95696744D01*
X116696540Y-95885000D01*
X116716326Y-96073256D01*
X116716327Y-96073259D01*
X116774818Y-96253277D01*
X116774821Y-96253284D01*
X116869467Y-96417216D01*
X116996129Y-96557888D01*
X117149265Y-96669148D01*
X117149270Y-96669151D01*
X117322192Y-96746142D01*
X117322197Y-96746144D01*
X117507354Y-96785500D01*
X117507355Y-96785500D01*
X117696644Y-96785500D01*
X117696646Y-96785500D01*
X117881803Y-96746144D01*
X118054730Y-96669151D01*
X118207871Y-96557888D01*
X118334533Y-96417216D01*
X118429179Y-96253284D01*
X118487674Y-96073256D01*
X118495682Y-95997058D01*
X118522265Y-95932448D01*
X118579562Y-95892462D01*
X118649381Y-95889802D01*
X118709555Y-95925311D01*
X118740979Y-95987715D01*
X118742610Y-96000179D01*
X118743157Y-96007054D01*
X118743548Y-96016954D01*
X118742648Y-97535989D01*
X118722924Y-97603017D01*
X118670093Y-97648741D01*
X118600928Y-97658643D01*
X118537390Y-97629581D01*
X118511261Y-97597915D01*
X118461536Y-97511788D01*
X118461534Y-97511785D01*
X118334870Y-97371111D01*
X118181734Y-97259851D01*
X118181729Y-97259848D01*
X118008807Y-97182857D01*
X118008802Y-97182855D01*
X117863001Y-97151865D01*
X117823646Y-97143500D01*
X117634354Y-97143500D01*
X117601897Y-97150398D01*
X117449197Y-97182855D01*
X117449192Y-97182857D01*
X117276270Y-97259848D01*
X117276265Y-97259851D01*
X117123129Y-97371111D01*
X116996466Y-97511785D01*
X116901821Y-97675715D01*
X116901818Y-97675722D01*
X116864889Y-97789380D01*
X116843326Y-97855744D01*
X116823540Y-98044000D01*
X116843326Y-98232256D01*
X116843327Y-98232259D01*
X116901818Y-98412277D01*
X116901821Y-98412284D01*
X116996467Y-98576216D01*
X117078660Y-98667500D01*
X117123129Y-98716888D01*
X117276265Y-98828148D01*
X117276270Y-98828151D01*
X117449192Y-98905142D01*
X117449197Y-98905144D01*
X117634354Y-98944500D01*
X117634355Y-98944500D01*
X117823644Y-98944500D01*
X117823646Y-98944500D01*
X118008803Y-98905144D01*
X118181730Y-98828151D01*
X118334871Y-98716888D01*
X118461533Y-98576216D01*
X118510660Y-98491124D01*
X118561224Y-98442912D01*
X118629830Y-98429688D01*
X118694696Y-98455655D01*
X118735225Y-98512569D01*
X118742045Y-98553200D01*
X118740769Y-100707735D01*
X118721045Y-100774763D01*
X118668214Y-100820487D01*
X118599049Y-100830389D01*
X118535511Y-100801327D01*
X118509384Y-100769664D01*
X118461533Y-100686784D01*
X118334871Y-100546112D01*
X118334870Y-100546111D01*
X118181734Y-100434851D01*
X118181729Y-100434848D01*
X118008807Y-100357857D01*
X118008802Y-100357855D01*
X117863001Y-100326865D01*
X117823646Y-100318500D01*
X117634354Y-100318500D01*
X117601897Y-100325398D01*
X117449197Y-100357855D01*
X117449192Y-100357857D01*
X117276270Y-100434848D01*
X117276265Y-100434851D01*
X117123129Y-100546111D01*
X116996466Y-100686785D01*
X116901821Y-100850715D01*
X116901818Y-100850722D01*
X116843327Y-101030740D01*
X116843326Y-101030744D01*
X116823540Y-101219000D01*
X116843326Y-101407256D01*
X116843327Y-101407259D01*
X116901818Y-101587277D01*
X116901821Y-101587284D01*
X116996467Y-101751216D01*
X117078660Y-101842500D01*
X117123129Y-101891888D01*
X117276265Y-102003148D01*
X117276270Y-102003151D01*
X117449192Y-102080142D01*
X117449197Y-102080144D01*
X117634354Y-102119500D01*
X117634355Y-102119500D01*
X117823644Y-102119500D01*
X117823646Y-102119500D01*
X118008803Y-102080144D01*
X118181730Y-102003151D01*
X118334871Y-101891888D01*
X118461533Y-101751216D01*
X118508777Y-101669385D01*
X118559342Y-101621172D01*
X118627949Y-101607948D01*
X118692814Y-101633916D01*
X118733343Y-101690829D01*
X118740163Y-101731460D01*
X118738236Y-104985700D01*
X118718512Y-105052728D01*
X118665681Y-105098452D01*
X118596516Y-105108354D01*
X118532978Y-105079292D01*
X118495238Y-105020491D01*
X118490916Y-104998596D01*
X118487674Y-104967744D01*
X118429179Y-104787716D01*
X118334533Y-104623784D01*
X118207871Y-104483112D01*
X118175708Y-104459744D01*
X118054734Y-104371851D01*
X118054729Y-104371848D01*
X117881807Y-104294857D01*
X117881802Y-104294855D01*
X117736001Y-104263865D01*
X117696646Y-104255500D01*
X117507354Y-104255500D01*
X117474897Y-104262398D01*
X117322197Y-104294855D01*
X117322192Y-104294857D01*
X117149270Y-104371848D01*
X117149265Y-104371851D01*
X116996129Y-104483111D01*
X116869466Y-104623785D01*
X116774821Y-104787715D01*
X116774818Y-104787722D01*
X116725377Y-104939888D01*
X116716326Y-104967744D01*
X116696540Y-105156000D01*
X116716326Y-105344256D01*
X116716327Y-105344259D01*
X116774818Y-105524277D01*
X116774821Y-105524284D01*
X116854331Y-105662000D01*
X116870804Y-105729901D01*
X116847951Y-105795927D01*
X116793030Y-105839118D01*
X116746944Y-105848000D01*
X116371379Y-105848000D01*
X116304340Y-105828315D01*
X116258585Y-105775511D01*
X116248641Y-105706353D01*
X116263990Y-105662003D01*
X116270179Y-105651284D01*
X116328674Y-105471256D01*
X116348460Y-105283000D01*
X116328674Y-105094744D01*
X116270179Y-104914716D01*
X116175533Y-104750784D01*
X116048871Y-104610112D01*
X116048870Y-104610111D01*
X115895734Y-104498851D01*
X115895729Y-104498848D01*
X115722807Y-104421857D01*
X115722802Y-104421855D01*
X115577001Y-104390865D01*
X115537646Y-104382500D01*
X115348354Y-104382500D01*
X115315897Y-104389398D01*
X115163197Y-104421855D01*
X115163192Y-104421857D01*
X114990270Y-104498848D01*
X114990265Y-104498851D01*
X114837129Y-104610111D01*
X114710466Y-104750785D01*
X114615821Y-104914715D01*
X114615818Y-104914722D01*
X114557327Y-105094740D01*
X114557326Y-105094744D01*
X114537540Y-105283000D01*
X114557326Y-105471256D01*
X114557327Y-105471259D01*
X114615818Y-105651277D01*
X114615820Y-105651281D01*
X114615821Y-105651284D01*
X114710467Y-105815216D01*
X114817934Y-105934570D01*
X114837129Y-105955888D01*
X114990265Y-106067148D01*
X114990270Y-106067151D01*
X115163192Y-106144142D01*
X115163197Y-106144144D01*
X115348354Y-106183500D01*
X115348355Y-106183500D01*
X115537643Y-106183500D01*
X115537646Y-106183500D01*
X115537715Y-106183485D01*
X115537756Y-106183488D01*
X115544103Y-106182821D01*
X115544225Y-106183981D01*
X115607382Y-106188798D01*
X115663117Y-106230933D01*
X115687224Y-106296512D01*
X115687500Y-106304774D01*
X115687500Y-106948000D01*
X116603814Y-106948000D01*
X116578007Y-106988156D01*
X116537500Y-107126111D01*
X116537500Y-107269889D01*
X116578007Y-107407844D01*
X116603814Y-107448000D01*
X115687500Y-107448000D01*
X115687500Y-108095844D01*
X115693901Y-108155372D01*
X115693903Y-108155379D01*
X115744145Y-108290086D01*
X115744149Y-108290093D01*
X115830309Y-108405187D01*
X115830312Y-108405190D01*
X115945406Y-108491350D01*
X115945413Y-108491354D01*
X116076970Y-108540421D01*
X116132903Y-108582292D01*
X116157321Y-108647756D01*
X116142470Y-108716029D01*
X116121319Y-108744284D01*
X115999003Y-108866600D01*
X115863465Y-109060169D01*
X115863464Y-109060171D01*
X115763598Y-109274335D01*
X115763594Y-109274344D01*
X115702438Y-109502586D01*
X115702436Y-109502596D01*
X115681841Y-109737999D01*
X115681841Y-109738000D01*
X115702436Y-109973403D01*
X115702438Y-109973413D01*
X115763594Y-110201655D01*
X115763596Y-110201659D01*
X115763597Y-110201663D01*
X115779609Y-110236000D01*
X115863465Y-110415830D01*
X115863467Y-110415834D01*
X115958291Y-110551256D01*
X115984819Y-110589142D01*
X115999001Y-110609395D01*
X115999006Y-110609402D01*
X116166097Y-110776493D01*
X116166103Y-110776498D01*
X116351658Y-110906425D01*
X116395283Y-110961002D01*
X116402477Y-111030500D01*
X116370954Y-111092855D01*
X116351658Y-111109575D01*
X116166097Y-111239505D01*
X115999005Y-111406597D01*
X115863465Y-111600169D01*
X115863464Y-111600171D01*
X115763598Y-111814335D01*
X115763594Y-111814344D01*
X115702438Y-112042586D01*
X115702436Y-112042596D01*
X115681841Y-112277999D01*
X115681841Y-112278000D01*
X115702436Y-112513403D01*
X115702438Y-112513413D01*
X115763594Y-112741655D01*
X115763596Y-112741659D01*
X115763597Y-112741663D01*
X115844762Y-112915722D01*
X115863465Y-112955830D01*
X115863467Y-112955834D01*
X115999001Y-113149395D01*
X115999006Y-113149402D01*
X116166097Y-113316493D01*
X116166103Y-113316498D01*
X116351658Y-113446425D01*
X116395283Y-113501002D01*
X116402477Y-113570500D01*
X116370954Y-113632855D01*
X116351658Y-113649575D01*
X116166097Y-113779505D01*
X115999005Y-113946597D01*
X115863465Y-114140169D01*
X115863464Y-114140171D01*
X115763598Y-114354335D01*
X115763594Y-114354344D01*
X115702438Y-114582586D01*
X115702436Y-114582596D01*
X115681841Y-114817999D01*
X115681841Y-114818000D01*
X115702436Y-115053403D01*
X115702438Y-115053413D01*
X115763594Y-115281655D01*
X115763596Y-115281659D01*
X115763597Y-115281663D01*
X115863465Y-115495830D01*
X115863467Y-115495834D01*
X115933934Y-115596470D01*
X115999005Y-115689401D01*
X116166099Y-115856495D01*
X116246955Y-115913111D01*
X116359665Y-115992032D01*
X116359667Y-115992033D01*
X116359670Y-115992035D01*
X116573837Y-116091903D01*
X116802092Y-116153063D01*
X116972040Y-116167931D01*
X117037107Y-116193383D01*
X117078086Y-116249974D01*
X117081964Y-116319736D01*
X117053382Y-116374430D01*
X116999106Y-116434711D01*
X116904461Y-116598641D01*
X116904458Y-116598648D01*
X116847400Y-116774256D01*
X116845966Y-116778670D01*
X116826180Y-116966926D01*
X116845966Y-117155182D01*
X116845967Y-117155185D01*
X116904458Y-117335203D01*
X116904461Y-117335210D01*
X116999107Y-117499142D01*
X117113525Y-117626216D01*
X117125769Y-117639814D01*
X117278905Y-117751074D01*
X117278910Y-117751077D01*
X117451832Y-117828068D01*
X117451837Y-117828070D01*
X117636994Y-117867426D01*
X117636995Y-117867426D01*
X117826284Y-117867426D01*
X117826286Y-117867426D01*
X118011443Y-117828070D01*
X118184370Y-117751077D01*
X118337511Y-117639814D01*
X118464173Y-117499142D01*
X118499438Y-117438061D01*
X118550003Y-117389847D01*
X118618610Y-117376623D01*
X118683475Y-117402591D01*
X118724004Y-117459504D01*
X118730824Y-117500135D01*
X118729694Y-119407774D01*
X118709970Y-119474802D01*
X118657139Y-119520526D01*
X118587974Y-119530428D01*
X118524436Y-119501366D01*
X118487763Y-119446019D01*
X118487672Y-119445740D01*
X118429179Y-119265716D01*
X118334533Y-119101784D01*
X118207871Y-118961112D01*
X118207870Y-118961111D01*
X118054734Y-118849851D01*
X118054729Y-118849848D01*
X117881807Y-118772857D01*
X117881802Y-118772855D01*
X117736001Y-118741865D01*
X117696646Y-118733500D01*
X117507354Y-118733500D01*
X117474897Y-118740398D01*
X117322197Y-118772855D01*
X117322192Y-118772857D01*
X117149270Y-118849848D01*
X117149265Y-118849851D01*
X116996129Y-118961111D01*
X116869466Y-119101785D01*
X116774821Y-119265715D01*
X116774818Y-119265722D01*
X116728663Y-119407774D01*
X116716326Y-119445744D01*
X116696540Y-119634000D01*
X116716326Y-119822256D01*
X116716327Y-119822259D01*
X116774818Y-120002277D01*
X116774821Y-120002284D01*
X116869467Y-120166216D01*
X116981957Y-120291148D01*
X116996129Y-120306888D01*
X117149265Y-120418148D01*
X117149270Y-120418151D01*
X117322192Y-120495142D01*
X117322197Y-120495144D01*
X117507354Y-120534500D01*
X117507355Y-120534500D01*
X117696644Y-120534500D01*
X117696646Y-120534500D01*
X117881803Y-120495144D01*
X118054730Y-120418151D01*
X118207871Y-120306888D01*
X118334533Y-120166216D01*
X118429179Y-120002284D01*
X118487495Y-119822805D01*
X118526932Y-119765131D01*
X118591291Y-119737932D01*
X118660137Y-119749847D01*
X118711613Y-119797091D01*
X118729426Y-119861197D01*
X118727695Y-122783089D01*
X118707971Y-122850117D01*
X118655140Y-122895841D01*
X118585975Y-122905743D01*
X118522437Y-122876681D01*
X118496308Y-122845016D01*
X118482855Y-122821715D01*
X118461533Y-122784784D01*
X118334871Y-122644112D01*
X118334870Y-122644111D01*
X118181734Y-122532851D01*
X118181729Y-122532848D01*
X118008807Y-122455857D01*
X118008802Y-122455855D01*
X117863001Y-122424865D01*
X117823646Y-122416500D01*
X117634354Y-122416500D01*
X117601897Y-122423398D01*
X117449197Y-122455855D01*
X117449192Y-122455857D01*
X117276270Y-122532848D01*
X117276265Y-122532851D01*
X117123129Y-122644111D01*
X116996466Y-122784785D01*
X116901821Y-122948715D01*
X116901818Y-122948722D01*
X116861709Y-123072167D01*
X116843326Y-123128744D01*
X116823540Y-123317000D01*
X116843326Y-123505256D01*
X116843327Y-123505259D01*
X116901818Y-123685277D01*
X116901821Y-123685284D01*
X116996467Y-123849216D01*
X117123129Y-123989888D01*
X117276265Y-124101148D01*
X117276270Y-124101151D01*
X117449192Y-124178142D01*
X117449197Y-124178144D01*
X117634354Y-124217500D01*
X117634355Y-124217500D01*
X117823644Y-124217500D01*
X117823646Y-124217500D01*
X118008803Y-124178144D01*
X118181730Y-124101151D01*
X118334871Y-123989888D01*
X118461533Y-123849216D01*
X118495676Y-123790077D01*
X118546241Y-123741864D01*
X118614847Y-123728640D01*
X118679712Y-123754607D01*
X118720242Y-123811521D01*
X118727062Y-123852152D01*
X118725565Y-126380065D01*
X118705841Y-126447093D01*
X118653010Y-126492817D01*
X118583845Y-126502719D01*
X118520307Y-126473657D01*
X118483634Y-126418310D01*
X118429181Y-126250722D01*
X118429180Y-126250721D01*
X118429179Y-126250716D01*
X118334533Y-126086784D01*
X118207871Y-125946112D01*
X118207870Y-125946111D01*
X118054734Y-125834851D01*
X118054729Y-125834848D01*
X117881807Y-125757857D01*
X117881802Y-125757855D01*
X117736001Y-125726865D01*
X117696646Y-125718500D01*
X117507354Y-125718500D01*
X117474897Y-125725398D01*
X117322197Y-125757855D01*
X117322192Y-125757857D01*
X117149270Y-125834848D01*
X117149265Y-125834851D01*
X116996129Y-125946111D01*
X116869466Y-126086785D01*
X116774821Y-126250715D01*
X116774818Y-126250722D01*
X116720366Y-126418310D01*
X116716326Y-126430744D01*
X116696540Y-126619000D01*
X116716326Y-126807256D01*
X116716327Y-126807259D01*
X116774818Y-126987277D01*
X116774821Y-126987284D01*
X116869467Y-127151216D01*
X116944084Y-127234086D01*
X116996129Y-127291888D01*
X117149265Y-127403148D01*
X117149270Y-127403151D01*
X117322192Y-127480142D01*
X117322197Y-127480144D01*
X117507354Y-127519500D01*
X117507355Y-127519500D01*
X117696644Y-127519500D01*
X117696646Y-127519500D01*
X117881803Y-127480144D01*
X117915899Y-127464962D01*
X117985149Y-127455677D01*
X118048426Y-127485305D01*
X118085640Y-127544440D01*
X118084976Y-127614306D01*
X118046644Y-127672723D01*
X118031124Y-127683970D01*
X117981692Y-127714261D01*
X117964357Y-127723094D01*
X117782688Y-127798344D01*
X117764183Y-127804357D01*
X117572977Y-127850262D01*
X117553758Y-127853306D01*
X117352854Y-127869118D01*
X117343125Y-127869500D01*
X114906294Y-127869500D01*
X114839255Y-127849815D01*
X114793500Y-127797011D01*
X114783556Y-127727853D01*
X114812581Y-127664297D01*
X114871359Y-127626523D01*
X114880513Y-127624210D01*
X114960803Y-127607144D01*
X115133730Y-127530151D01*
X115286871Y-127418888D01*
X115413533Y-127278216D01*
X115508179Y-127114284D01*
X115566674Y-126934256D01*
X115586460Y-126746000D01*
X115566674Y-126557744D01*
X115508179Y-126377716D01*
X115413533Y-126213784D01*
X115286871Y-126073112D01*
X115286870Y-126073111D01*
X115133734Y-125961851D01*
X115133729Y-125961848D01*
X114960807Y-125884857D01*
X114960802Y-125884855D01*
X114815001Y-125853865D01*
X114775646Y-125845500D01*
X114586354Y-125845500D01*
X114553897Y-125852398D01*
X114401197Y-125884855D01*
X114401192Y-125884857D01*
X114228270Y-125961848D01*
X114228265Y-125961851D01*
X114075129Y-126073111D01*
X113948466Y-126213785D01*
X113853821Y-126377715D01*
X113853818Y-126377722D01*
X113795327Y-126557740D01*
X113795326Y-126557744D01*
X113775540Y-126746000D01*
X113795326Y-126934256D01*
X113795327Y-126934259D01*
X113853818Y-127114277D01*
X113853821Y-127114284D01*
X113948467Y-127278216D01*
X114047064Y-127387719D01*
X114075129Y-127418888D01*
X114228265Y-127530148D01*
X114228270Y-127530151D01*
X114401192Y-127607142D01*
X114401197Y-127607144D01*
X114481487Y-127624210D01*
X114542969Y-127657402D01*
X114576745Y-127718565D01*
X114572093Y-127788280D01*
X114530489Y-127844412D01*
X114465141Y-127869141D01*
X114455706Y-127869500D01*
X98650294Y-127869500D01*
X98583255Y-127849815D01*
X98537500Y-127797011D01*
X98527556Y-127727853D01*
X98556581Y-127664297D01*
X98615359Y-127626523D01*
X98624513Y-127624210D01*
X98704803Y-127607144D01*
X98877730Y-127530151D01*
X99030871Y-127418888D01*
X99157533Y-127278216D01*
X99252179Y-127114284D01*
X99310674Y-126934256D01*
X99330460Y-126746000D01*
X99330040Y-126742000D01*
X101559500Y-126742000D01*
X101559500Y-127039844D01*
X101565901Y-127099372D01*
X101565903Y-127099379D01*
X101616145Y-127234086D01*
X101616149Y-127234093D01*
X101702309Y-127349187D01*
X101702312Y-127349190D01*
X101817406Y-127435350D01*
X101817413Y-127435354D01*
X101952120Y-127485596D01*
X101952127Y-127485598D01*
X102011655Y-127491999D01*
X102011672Y-127492000D01*
X102309500Y-127492000D01*
X102309500Y-126742000D01*
X101559500Y-126742000D01*
X99330040Y-126742000D01*
X99310674Y-126557744D01*
X99252179Y-126377716D01*
X99157533Y-126213784D01*
X99030871Y-126073112D01*
X99030870Y-126073111D01*
X98877734Y-125961851D01*
X98877729Y-125961848D01*
X98704807Y-125884857D01*
X98704802Y-125884855D01*
X98559001Y-125853865D01*
X98519646Y-125845500D01*
X98330354Y-125845500D01*
X98297897Y-125852398D01*
X98145197Y-125884855D01*
X98145192Y-125884857D01*
X97972270Y-125961848D01*
X97972265Y-125961851D01*
X97819129Y-126073111D01*
X97692466Y-126213785D01*
X97597821Y-126377715D01*
X97597818Y-126377722D01*
X97539327Y-126557740D01*
X97539326Y-126557744D01*
X97519540Y-126746000D01*
X97539326Y-126934256D01*
X97539327Y-126934259D01*
X97597818Y-127114277D01*
X97597821Y-127114284D01*
X97692467Y-127278216D01*
X97791064Y-127387719D01*
X97819129Y-127418888D01*
X97972265Y-127530148D01*
X97972270Y-127530151D01*
X98145192Y-127607142D01*
X98145197Y-127607144D01*
X98225487Y-127624210D01*
X98286969Y-127657402D01*
X98320745Y-127718565D01*
X98316093Y-127788280D01*
X98274489Y-127844412D01*
X98209141Y-127869141D01*
X98199706Y-127869500D01*
X94967294Y-127869500D01*
X94900255Y-127849815D01*
X94854500Y-127797011D01*
X94844556Y-127727853D01*
X94873581Y-127664297D01*
X94932359Y-127626523D01*
X94941513Y-127624210D01*
X95021803Y-127607144D01*
X95194730Y-127530151D01*
X95347871Y-127418888D01*
X95474533Y-127278216D01*
X95569179Y-127114284D01*
X95627674Y-126934256D01*
X95647460Y-126746000D01*
X95627674Y-126557744D01*
X95569179Y-126377716D01*
X95474533Y-126213784D01*
X95347871Y-126073112D01*
X95347870Y-126073111D01*
X95194734Y-125961851D01*
X95194729Y-125961848D01*
X95021807Y-125884857D01*
X95021802Y-125884855D01*
X94876001Y-125853865D01*
X94836646Y-125845500D01*
X94647354Y-125845500D01*
X94614897Y-125852398D01*
X94462197Y-125884855D01*
X94462192Y-125884857D01*
X94427362Y-125900365D01*
X94358112Y-125909650D01*
X94294835Y-125880022D01*
X94257622Y-125820887D01*
X94252931Y-125786017D01*
X94252933Y-125785851D01*
X94257794Y-125222000D01*
X101554159Y-125222000D01*
X101573475Y-125418129D01*
X101573476Y-125418132D01*
X101630686Y-125606727D01*
X101630687Y-125606730D01*
X101630688Y-125606731D01*
X101632083Y-125609341D01*
X101632401Y-125610870D01*
X101633018Y-125612359D01*
X101632735Y-125612475D01*
X101646324Y-125677743D01*
X101621992Y-125742102D01*
X101616148Y-125749907D01*
X101616145Y-125749913D01*
X101565903Y-125884620D01*
X101565901Y-125884627D01*
X101559500Y-125944155D01*
X101559500Y-126242000D01*
X102345017Y-126242000D01*
X102273699Y-126326993D01*
X102234500Y-126434694D01*
X102234500Y-126549306D01*
X102273699Y-126657007D01*
X102347371Y-126744805D01*
X102446629Y-126802112D01*
X102531064Y-126817000D01*
X102587936Y-126817000D01*
X102672371Y-126802112D01*
X102771629Y-126744805D01*
X102809500Y-126699672D01*
X102809500Y-127492000D01*
X103107328Y-127492000D01*
X103107344Y-127491999D01*
X103166872Y-127485598D01*
X103166876Y-127485597D01*
X103301589Y-127435351D01*
X103309390Y-127429512D01*
X103374853Y-127405091D01*
X103439029Y-127418751D01*
X103439141Y-127418482D01*
X103440600Y-127419086D01*
X103442163Y-127419419D01*
X103444773Y-127420814D01*
X103633368Y-127478024D01*
X103829500Y-127497341D01*
X104025632Y-127478024D01*
X104214227Y-127420814D01*
X104388038Y-127327910D01*
X104388044Y-127327904D01*
X104393107Y-127324523D01*
X104394203Y-127326164D01*
X104450139Y-127302405D01*
X104519007Y-127314194D01*
X104535648Y-127324888D01*
X104535893Y-127324523D01*
X104540958Y-127327907D01*
X104540962Y-127327910D01*
X104652857Y-127387719D01*
X104711169Y-127418888D01*
X104714773Y-127420814D01*
X104903368Y-127478024D01*
X105099500Y-127497341D01*
X105295632Y-127478024D01*
X105484227Y-127420814D01*
X105658038Y-127327910D01*
X105658044Y-127327904D01*
X105663107Y-127324523D01*
X105664203Y-127326164D01*
X105720139Y-127302405D01*
X105789007Y-127314194D01*
X105805648Y-127324888D01*
X105805893Y-127324523D01*
X105810958Y-127327907D01*
X105810962Y-127327910D01*
X105922857Y-127387719D01*
X105981169Y-127418888D01*
X105984773Y-127420814D01*
X106173368Y-127478024D01*
X106369500Y-127497341D01*
X106565632Y-127478024D01*
X106754227Y-127420814D01*
X106928038Y-127327910D01*
X106928044Y-127327904D01*
X106933107Y-127324523D01*
X106934203Y-127326164D01*
X106990139Y-127302405D01*
X107059007Y-127314194D01*
X107075648Y-127324888D01*
X107075893Y-127324523D01*
X107080958Y-127327907D01*
X107080962Y-127327910D01*
X107192857Y-127387719D01*
X107251169Y-127418888D01*
X107254773Y-127420814D01*
X107443368Y-127478024D01*
X107639500Y-127497341D01*
X107835632Y-127478024D01*
X108024227Y-127420814D01*
X108027831Y-127418888D01*
X108158226Y-127349190D01*
X108198038Y-127327910D01*
X108350383Y-127202883D01*
X108475410Y-127050538D01*
X108521862Y-126963632D01*
X108568311Y-126876733D01*
X108568311Y-126876732D01*
X108568314Y-126876727D01*
X108625524Y-126688132D01*
X108632333Y-126619000D01*
X110981540Y-126619000D01*
X111001326Y-126807256D01*
X111001327Y-126807259D01*
X111059818Y-126987277D01*
X111059821Y-126987284D01*
X111154467Y-127151216D01*
X111229084Y-127234086D01*
X111281129Y-127291888D01*
X111434265Y-127403148D01*
X111434270Y-127403151D01*
X111607192Y-127480142D01*
X111607197Y-127480144D01*
X111792354Y-127519500D01*
X111792355Y-127519500D01*
X111981644Y-127519500D01*
X111981646Y-127519500D01*
X112166803Y-127480144D01*
X112339730Y-127403151D01*
X112492871Y-127291888D01*
X112619533Y-127151216D01*
X112714179Y-126987284D01*
X112772674Y-126807256D01*
X112792460Y-126619000D01*
X112772674Y-126430744D01*
X112714179Y-126250716D01*
X112619533Y-126086784D01*
X112492871Y-125946112D01*
X112492870Y-125946111D01*
X112339734Y-125834851D01*
X112339729Y-125834848D01*
X112166807Y-125757857D01*
X112166802Y-125757855D01*
X112021001Y-125726865D01*
X111981646Y-125718500D01*
X111792354Y-125718500D01*
X111759897Y-125725398D01*
X111607197Y-125757855D01*
X111607192Y-125757857D01*
X111434270Y-125834848D01*
X111434265Y-125834851D01*
X111281129Y-125946111D01*
X111154466Y-126086785D01*
X111059821Y-126250715D01*
X111059818Y-126250722D01*
X111005366Y-126418310D01*
X111001326Y-126430744D01*
X110981540Y-126619000D01*
X108632333Y-126619000D01*
X108644841Y-126492000D01*
X108625524Y-126295868D01*
X108568314Y-126107273D01*
X108475410Y-125933462D01*
X108475407Y-125933458D01*
X108472023Y-125928393D01*
X108473664Y-125927296D01*
X108449905Y-125871361D01*
X108461694Y-125802493D01*
X108472388Y-125785851D01*
X108472023Y-125785607D01*
X108475404Y-125780544D01*
X108475410Y-125780538D01*
X108568314Y-125606727D01*
X108625524Y-125418132D01*
X108644841Y-125222000D01*
X108625524Y-125025868D01*
X108568314Y-124837273D01*
X108568311Y-124837269D01*
X108568311Y-124837266D01*
X108475413Y-124663467D01*
X108475409Y-124663460D01*
X108350383Y-124511116D01*
X108198039Y-124386090D01*
X108198032Y-124386086D01*
X108024233Y-124293188D01*
X108024227Y-124293186D01*
X107835632Y-124235976D01*
X107835629Y-124235975D01*
X107639500Y-124216659D01*
X107443370Y-124235975D01*
X107254766Y-124293188D01*
X107080967Y-124386086D01*
X107075899Y-124389473D01*
X107074805Y-124387836D01*
X107018837Y-124411596D01*
X106949971Y-124399795D01*
X106933343Y-124389109D01*
X106933101Y-124389473D01*
X106928032Y-124386086D01*
X106754233Y-124293188D01*
X106754227Y-124293186D01*
X106565632Y-124235976D01*
X106565629Y-124235975D01*
X106369500Y-124216659D01*
X106173370Y-124235975D01*
X105984766Y-124293188D01*
X105810967Y-124386086D01*
X105805899Y-124389473D01*
X105804805Y-124387836D01*
X105748837Y-124411596D01*
X105679971Y-124399795D01*
X105663343Y-124389109D01*
X105663101Y-124389473D01*
X105658032Y-124386086D01*
X105484233Y-124293188D01*
X105484227Y-124293186D01*
X105295632Y-124235976D01*
X105295629Y-124235975D01*
X105099500Y-124216659D01*
X104903370Y-124235975D01*
X104714766Y-124293188D01*
X104540967Y-124386086D01*
X104535899Y-124389473D01*
X104534805Y-124387836D01*
X104478837Y-124411596D01*
X104409971Y-124399795D01*
X104393343Y-124389109D01*
X104393101Y-124389473D01*
X104388032Y-124386085D01*
X104271612Y-124323858D01*
X104221767Y-124274896D01*
X104206307Y-124206758D01*
X104230139Y-124141078D01*
X104285696Y-124098710D01*
X104330065Y-124090500D01*
X104361644Y-124090500D01*
X104361646Y-124090500D01*
X104546803Y-124051144D01*
X104719730Y-123974151D01*
X104872871Y-123862888D01*
X104999533Y-123722216D01*
X105094179Y-123558284D01*
X105152674Y-123378256D01*
X105172460Y-123190000D01*
X105152674Y-123001744D01*
X105094179Y-122821716D01*
X104999533Y-122657784D01*
X104906986Y-122555000D01*
X111235540Y-122555000D01*
X111255326Y-122743256D01*
X111255327Y-122743259D01*
X111313818Y-122923277D01*
X111313821Y-122923284D01*
X111408467Y-123087216D01*
X111502907Y-123192102D01*
X111535129Y-123227888D01*
X111688265Y-123339148D01*
X111688270Y-123339151D01*
X111861192Y-123416142D01*
X111861197Y-123416144D01*
X112046354Y-123455500D01*
X112046355Y-123455500D01*
X112235644Y-123455500D01*
X112235646Y-123455500D01*
X112420803Y-123416144D01*
X112593730Y-123339151D01*
X112746871Y-123227888D01*
X112873533Y-123087216D01*
X112968179Y-122923284D01*
X113026674Y-122743256D01*
X113046460Y-122555000D01*
X113033112Y-122428000D01*
X114156540Y-122428000D01*
X114176326Y-122616256D01*
X114176327Y-122616259D01*
X114234818Y-122796277D01*
X114234821Y-122796284D01*
X114329467Y-122960216D01*
X114440768Y-123083828D01*
X114456129Y-123100888D01*
X114609265Y-123212148D01*
X114609270Y-123212151D01*
X114782192Y-123289142D01*
X114782197Y-123289144D01*
X114967354Y-123328500D01*
X114967355Y-123328500D01*
X115156644Y-123328500D01*
X115156646Y-123328500D01*
X115341803Y-123289144D01*
X115514730Y-123212151D01*
X115667871Y-123100888D01*
X115794533Y-122960216D01*
X115889179Y-122796284D01*
X115947674Y-122616256D01*
X115967460Y-122428000D01*
X115947674Y-122239744D01*
X115889179Y-122059716D01*
X115794533Y-121895784D01*
X115667871Y-121755112D01*
X115667870Y-121755111D01*
X115514734Y-121643851D01*
X115514729Y-121643848D01*
X115341807Y-121566857D01*
X115341802Y-121566855D01*
X115196001Y-121535865D01*
X115156646Y-121527500D01*
X114967354Y-121527500D01*
X114934897Y-121534398D01*
X114782197Y-121566855D01*
X114782192Y-121566857D01*
X114609270Y-121643848D01*
X114609265Y-121643851D01*
X114456129Y-121755111D01*
X114329466Y-121895785D01*
X114234821Y-122059715D01*
X114234818Y-122059722D01*
X114190491Y-122196148D01*
X114176326Y-122239744D01*
X114156540Y-122428000D01*
X113033112Y-122428000D01*
X113026674Y-122366744D01*
X112968179Y-122186716D01*
X112873533Y-122022784D01*
X112746871Y-121882112D01*
X112714708Y-121858744D01*
X112593734Y-121770851D01*
X112593729Y-121770848D01*
X112420807Y-121693857D01*
X112420802Y-121693855D01*
X112275001Y-121662865D01*
X112235646Y-121654500D01*
X112046354Y-121654500D01*
X112013897Y-121661398D01*
X111861197Y-121693855D01*
X111861192Y-121693857D01*
X111688270Y-121770848D01*
X111688265Y-121770851D01*
X111535129Y-121882111D01*
X111408466Y-122022785D01*
X111313821Y-122186715D01*
X111313818Y-122186722D01*
X111267636Y-122328857D01*
X111255326Y-122366744D01*
X111235540Y-122555000D01*
X104906986Y-122555000D01*
X104872871Y-122517112D01*
X104872870Y-122517111D01*
X104719734Y-122405851D01*
X104719729Y-122405848D01*
X104546807Y-122328857D01*
X104546802Y-122328855D01*
X104401001Y-122297865D01*
X104361646Y-122289500D01*
X104172354Y-122289500D01*
X104139897Y-122296398D01*
X103987197Y-122328855D01*
X103987192Y-122328857D01*
X103814270Y-122405848D01*
X103814265Y-122405851D01*
X103661129Y-122517111D01*
X103534466Y-122657785D01*
X103439821Y-122821715D01*
X103439818Y-122821722D01*
X103394820Y-122960214D01*
X103381326Y-123001744D01*
X103361540Y-123190000D01*
X103381326Y-123378256D01*
X103381327Y-123378259D01*
X103439818Y-123558277D01*
X103439821Y-123558284D01*
X103534467Y-123722216D01*
X103614878Y-123811521D01*
X103661129Y-123862888D01*
X103814265Y-123974148D01*
X103814267Y-123974149D01*
X103814270Y-123974151D01*
X103834679Y-123983237D01*
X103887914Y-124028486D01*
X103908236Y-124095335D01*
X103889191Y-124162559D01*
X103836825Y-124208815D01*
X103796396Y-124219919D01*
X103633370Y-124235975D01*
X103444766Y-124293188D01*
X103270967Y-124386086D01*
X103265899Y-124389473D01*
X103264805Y-124387836D01*
X103208837Y-124411596D01*
X103139971Y-124399795D01*
X103123343Y-124389109D01*
X103123101Y-124389473D01*
X103118032Y-124386086D01*
X102944233Y-124293188D01*
X102944227Y-124293186D01*
X102755632Y-124235976D01*
X102755629Y-124235975D01*
X102559500Y-124216659D01*
X102363370Y-124235975D01*
X102174766Y-124293188D01*
X102000967Y-124386086D01*
X102000960Y-124386090D01*
X101848616Y-124511116D01*
X101723590Y-124663460D01*
X101723586Y-124663467D01*
X101630688Y-124837266D01*
X101573475Y-125025870D01*
X101554159Y-125222000D01*
X94257794Y-125222000D01*
X94276815Y-123015476D01*
X94297076Y-122948611D01*
X94350273Y-122903313D01*
X94419514Y-122893966D01*
X94451247Y-122903269D01*
X94462197Y-122908144D01*
X94647354Y-122947500D01*
X94647355Y-122947500D01*
X94836644Y-122947500D01*
X94836646Y-122947500D01*
X95021803Y-122908144D01*
X95194730Y-122831151D01*
X95347871Y-122719888D01*
X95474533Y-122579216D01*
X95569179Y-122415284D01*
X95627674Y-122235256D01*
X95647460Y-122047000D01*
X95627674Y-121858744D01*
X95606312Y-121793000D01*
X98154540Y-121793000D01*
X98174326Y-121981256D01*
X98174327Y-121981259D01*
X98232818Y-122161277D01*
X98232821Y-122161284D01*
X98327467Y-122325216D01*
X98445095Y-122455855D01*
X98454129Y-122465888D01*
X98607265Y-122577148D01*
X98607270Y-122577151D01*
X98780192Y-122654142D01*
X98780197Y-122654144D01*
X98965354Y-122693500D01*
X98965355Y-122693500D01*
X99154644Y-122693500D01*
X99154646Y-122693500D01*
X99339803Y-122654144D01*
X99512730Y-122577151D01*
X99665871Y-122465888D01*
X99792533Y-122325216D01*
X99887179Y-122161284D01*
X99945674Y-121981256D01*
X99965460Y-121793000D01*
X99945674Y-121604744D01*
X99887179Y-121424716D01*
X99879837Y-121412000D01*
X109203540Y-121412000D01*
X109223326Y-121600256D01*
X109223327Y-121600259D01*
X109281818Y-121780277D01*
X109281821Y-121780284D01*
X109376467Y-121944216D01*
X109503129Y-122084888D01*
X109656265Y-122196148D01*
X109656270Y-122196151D01*
X109829192Y-122273142D01*
X109829197Y-122273144D01*
X110014354Y-122312500D01*
X110014355Y-122312500D01*
X110203644Y-122312500D01*
X110203646Y-122312500D01*
X110388803Y-122273144D01*
X110561730Y-122196151D01*
X110714871Y-122084888D01*
X110841533Y-121944216D01*
X110936179Y-121780284D01*
X110994674Y-121600256D01*
X111014460Y-121412000D01*
X110994674Y-121223744D01*
X110936179Y-121043716D01*
X110841533Y-120879784D01*
X110714871Y-120739112D01*
X110714870Y-120739111D01*
X110561734Y-120627851D01*
X110561729Y-120627848D01*
X110388807Y-120550857D01*
X110388802Y-120550855D01*
X110243001Y-120519865D01*
X110203646Y-120511500D01*
X110014354Y-120511500D01*
X109981897Y-120518398D01*
X109829197Y-120550855D01*
X109829192Y-120550857D01*
X109656270Y-120627848D01*
X109656265Y-120627851D01*
X109503129Y-120739111D01*
X109376466Y-120879785D01*
X109281821Y-121043715D01*
X109281818Y-121043722D01*
X109233516Y-121192382D01*
X109223326Y-121223744D01*
X109203540Y-121412000D01*
X99879837Y-121412000D01*
X99792533Y-121260784D01*
X99665871Y-121120112D01*
X99595399Y-121068911D01*
X99512734Y-121008851D01*
X99512729Y-121008848D01*
X99339807Y-120931857D01*
X99339802Y-120931855D01*
X99194001Y-120900865D01*
X99154646Y-120892500D01*
X98965354Y-120892500D01*
X98932897Y-120899398D01*
X98780197Y-120931855D01*
X98780192Y-120931857D01*
X98607270Y-121008848D01*
X98607265Y-121008851D01*
X98454129Y-121120111D01*
X98327466Y-121260785D01*
X98232821Y-121424715D01*
X98232818Y-121424722D01*
X98186636Y-121566857D01*
X98174326Y-121604744D01*
X98154540Y-121793000D01*
X95606312Y-121793000D01*
X95569179Y-121678716D01*
X95474533Y-121514784D01*
X95347871Y-121374112D01*
X95347870Y-121374111D01*
X95194734Y-121262851D01*
X95194729Y-121262848D01*
X95021807Y-121185857D01*
X95021802Y-121185855D01*
X94876001Y-121154865D01*
X94836646Y-121146500D01*
X94647354Y-121146500D01*
X94614897Y-121153398D01*
X94462197Y-121185855D01*
X94456010Y-121187866D01*
X94455136Y-121185178D01*
X94397745Y-121192382D01*
X94334720Y-121162222D01*
X94298006Y-121102776D01*
X94293595Y-121068915D01*
X94298632Y-120484597D01*
X94318893Y-120417732D01*
X94372090Y-120372434D01*
X94441331Y-120363087D01*
X94460948Y-120367738D01*
X94462188Y-120368140D01*
X94462197Y-120368144D01*
X94647354Y-120407500D01*
X94647355Y-120407500D01*
X94836644Y-120407500D01*
X94836646Y-120407500D01*
X95021803Y-120368144D01*
X95194730Y-120291151D01*
X95347871Y-120179888D01*
X95474533Y-120039216D01*
X95569179Y-119875284D01*
X95627674Y-119695256D01*
X95634112Y-119634000D01*
X110854540Y-119634000D01*
X110874326Y-119822256D01*
X110874327Y-119822259D01*
X110932818Y-120002277D01*
X110932821Y-120002284D01*
X111027467Y-120166216D01*
X111139957Y-120291148D01*
X111154129Y-120306888D01*
X111307265Y-120418148D01*
X111307270Y-120418151D01*
X111480192Y-120495142D01*
X111480197Y-120495144D01*
X111665354Y-120534500D01*
X111665355Y-120534500D01*
X111854644Y-120534500D01*
X111854646Y-120534500D01*
X112039803Y-120495144D01*
X112212730Y-120418151D01*
X112365871Y-120306888D01*
X112492533Y-120166216D01*
X112587179Y-120002284D01*
X112645674Y-119822256D01*
X112665460Y-119634000D01*
X112645674Y-119445744D01*
X112587179Y-119265716D01*
X112492533Y-119101784D01*
X112365871Y-118961112D01*
X112365870Y-118961111D01*
X112212734Y-118849851D01*
X112212729Y-118849848D01*
X112039807Y-118772857D01*
X112039802Y-118772855D01*
X111894001Y-118741865D01*
X111854646Y-118733500D01*
X111665354Y-118733500D01*
X111632897Y-118740398D01*
X111480197Y-118772855D01*
X111480192Y-118772857D01*
X111307270Y-118849848D01*
X111307265Y-118849851D01*
X111154129Y-118961111D01*
X111027466Y-119101785D01*
X110932821Y-119265715D01*
X110932818Y-119265722D01*
X110886663Y-119407774D01*
X110874326Y-119445744D01*
X110854540Y-119634000D01*
X95634112Y-119634000D01*
X95647460Y-119507000D01*
X95627674Y-119318744D01*
X95569179Y-119138716D01*
X95474533Y-118974784D01*
X95347871Y-118834112D01*
X95347870Y-118834111D01*
X95194734Y-118722851D01*
X95194729Y-118722848D01*
X95021807Y-118645857D01*
X95021802Y-118645855D01*
X94876001Y-118614865D01*
X94836646Y-118606500D01*
X94647354Y-118606500D01*
X94551597Y-118626853D01*
X94465320Y-118645192D01*
X94395652Y-118639876D01*
X94339919Y-118597739D01*
X94315814Y-118532159D01*
X94315544Y-118522850D01*
X94323760Y-117569773D01*
X94344021Y-117502908D01*
X94397218Y-117457610D01*
X94466459Y-117448263D01*
X94473530Y-117449553D01*
X94647354Y-117486500D01*
X94647355Y-117486500D01*
X94836644Y-117486500D01*
X94836646Y-117486500D01*
X95021803Y-117447144D01*
X95194730Y-117370151D01*
X95347871Y-117258888D01*
X95474533Y-117118216D01*
X95561837Y-116967000D01*
X97646540Y-116967000D01*
X97666326Y-117155256D01*
X97666327Y-117155259D01*
X97724818Y-117335277D01*
X97724821Y-117335284D01*
X97819467Y-117499216D01*
X97933817Y-117626214D01*
X97946129Y-117639888D01*
X98099265Y-117751148D01*
X98099270Y-117751151D01*
X98272192Y-117828142D01*
X98272197Y-117828144D01*
X98457354Y-117867500D01*
X98457355Y-117867500D01*
X98646644Y-117867500D01*
X98646646Y-117867500D01*
X98700750Y-117856000D01*
X102218540Y-117856000D01*
X102238326Y-118044256D01*
X102238327Y-118044259D01*
X102296818Y-118224277D01*
X102296821Y-118224284D01*
X102391467Y-118388216D01*
X102512677Y-118522833D01*
X102518129Y-118528888D01*
X102671265Y-118640148D01*
X102671270Y-118640151D01*
X102844192Y-118717142D01*
X102844197Y-118717144D01*
X103029354Y-118756500D01*
X103029355Y-118756500D01*
X103218644Y-118756500D01*
X103218646Y-118756500D01*
X103403803Y-118717144D01*
X103576730Y-118640151D01*
X103729871Y-118528888D01*
X103856533Y-118388216D01*
X103951179Y-118224284D01*
X104009674Y-118044256D01*
X104029460Y-117856000D01*
X104009674Y-117667744D01*
X103951179Y-117487716D01*
X103856533Y-117323784D01*
X103729871Y-117183112D01*
X103729870Y-117183111D01*
X103607219Y-117094000D01*
X105520540Y-117094000D01*
X105540326Y-117282256D01*
X105540327Y-117282259D01*
X105598818Y-117462277D01*
X105598821Y-117462284D01*
X105693467Y-117626216D01*
X105805890Y-117751074D01*
X105820129Y-117766888D01*
X105973265Y-117878148D01*
X105973270Y-117878151D01*
X106146192Y-117955142D01*
X106146197Y-117955144D01*
X106331354Y-117994500D01*
X106331355Y-117994500D01*
X106520644Y-117994500D01*
X106520646Y-117994500D01*
X106705803Y-117955144D01*
X106878730Y-117878151D01*
X106878733Y-117878148D01*
X106881890Y-117876743D01*
X106951140Y-117867458D01*
X106982763Y-117876743D01*
X106985924Y-117878150D01*
X106985925Y-117878151D01*
X107158852Y-117955144D01*
X107344009Y-117994500D01*
X107344010Y-117994500D01*
X107533299Y-117994500D01*
X107533301Y-117994500D01*
X107718458Y-117955144D01*
X107891385Y-117878151D01*
X107891385Y-117878150D01*
X107897321Y-117875508D01*
X107898304Y-117877716D01*
X107955543Y-117863805D01*
X108021579Y-117886629D01*
X108064793Y-117941532D01*
X108073015Y-117974703D01*
X108080326Y-118044256D01*
X108080327Y-118044259D01*
X108138818Y-118224277D01*
X108138821Y-118224284D01*
X108233467Y-118388216D01*
X108354677Y-118522833D01*
X108360129Y-118528888D01*
X108513265Y-118640148D01*
X108513270Y-118640151D01*
X108686192Y-118717142D01*
X108686197Y-118717144D01*
X108871354Y-118756500D01*
X108871355Y-118756500D01*
X109060644Y-118756500D01*
X109060646Y-118756500D01*
X109245803Y-118717144D01*
X109418730Y-118640151D01*
X109571871Y-118528888D01*
X109698533Y-118388216D01*
X109712514Y-118364000D01*
X113013540Y-118364000D01*
X113033326Y-118552256D01*
X113033327Y-118552259D01*
X113091818Y-118732277D01*
X113091821Y-118732284D01*
X113186467Y-118896216D01*
X113257211Y-118974785D01*
X113313129Y-119036888D01*
X113466265Y-119148148D01*
X113466270Y-119148151D01*
X113639192Y-119225142D01*
X113639197Y-119225144D01*
X113824354Y-119264500D01*
X113824355Y-119264500D01*
X114013644Y-119264500D01*
X114013646Y-119264500D01*
X114198803Y-119225144D01*
X114371730Y-119148151D01*
X114524871Y-119036888D01*
X114651533Y-118896216D01*
X114746179Y-118732284D01*
X114804674Y-118552256D01*
X114824460Y-118364000D01*
X114804674Y-118175744D01*
X114746179Y-117995716D01*
X114651533Y-117831784D01*
X114524871Y-117691112D01*
X114492708Y-117667744D01*
X114371734Y-117579851D01*
X114371729Y-117579848D01*
X114198807Y-117502857D01*
X114198802Y-117502855D01*
X114053001Y-117471865D01*
X114013646Y-117463500D01*
X113824354Y-117463500D01*
X113791897Y-117470398D01*
X113639197Y-117502855D01*
X113639192Y-117502857D01*
X113466270Y-117579848D01*
X113466265Y-117579851D01*
X113313129Y-117691111D01*
X113186466Y-117831785D01*
X113091821Y-117995715D01*
X113091818Y-117995722D01*
X113033327Y-118175740D01*
X113033326Y-118175744D01*
X113013540Y-118364000D01*
X109712514Y-118364000D01*
X109793179Y-118224284D01*
X109851674Y-118044256D01*
X109861780Y-117948094D01*
X109888364Y-117883481D01*
X109945662Y-117843496D01*
X110010879Y-117839767D01*
X110141354Y-117867500D01*
X110141355Y-117867500D01*
X110330644Y-117867500D01*
X110330646Y-117867500D01*
X110515803Y-117828144D01*
X110688730Y-117751151D01*
X110841871Y-117639888D01*
X110968533Y-117499216D01*
X111063179Y-117335284D01*
X111121674Y-117155256D01*
X111141460Y-116967000D01*
X111121674Y-116778744D01*
X111063179Y-116598716D01*
X110968533Y-116434784D01*
X110841871Y-116294112D01*
X110841870Y-116294111D01*
X110688734Y-116182851D01*
X110688729Y-116182848D01*
X110515807Y-116105857D01*
X110515802Y-116105855D01*
X110370001Y-116074865D01*
X110330646Y-116066500D01*
X110141354Y-116066500D01*
X110108897Y-116073398D01*
X109956197Y-116105855D01*
X109956192Y-116105857D01*
X109783270Y-116182848D01*
X109783265Y-116182851D01*
X109630129Y-116294111D01*
X109503466Y-116434785D01*
X109408821Y-116598715D01*
X109408818Y-116598722D01*
X109351784Y-116774256D01*
X109350326Y-116778744D01*
X109343875Y-116840116D01*
X109340219Y-116874905D01*
X109313634Y-116939519D01*
X109256336Y-116979503D01*
X109191118Y-116983232D01*
X109060646Y-116955500D01*
X108871354Y-116955500D01*
X108838897Y-116962398D01*
X108686197Y-116994855D01*
X108686192Y-116994857D01*
X108507334Y-117074492D01*
X108506356Y-117072296D01*
X108449036Y-117086190D01*
X108383013Y-117063326D01*
X108339833Y-117008397D01*
X108331639Y-116975297D01*
X108324329Y-116905744D01*
X108265834Y-116725716D01*
X108171188Y-116561784D01*
X108044526Y-116421112D01*
X108012363Y-116397744D01*
X107891389Y-116309851D01*
X107891384Y-116309848D01*
X107718462Y-116232857D01*
X107718457Y-116232855D01*
X107572656Y-116201865D01*
X107533301Y-116193500D01*
X107344009Y-116193500D01*
X107311552Y-116200398D01*
X107158852Y-116232855D01*
X107158847Y-116232857D01*
X106982763Y-116311256D01*
X106913513Y-116320541D01*
X106881891Y-116311256D01*
X106705807Y-116232857D01*
X106705802Y-116232855D01*
X106560001Y-116201865D01*
X106520646Y-116193500D01*
X106331354Y-116193500D01*
X106298897Y-116200398D01*
X106146197Y-116232855D01*
X106146192Y-116232857D01*
X105973270Y-116309848D01*
X105973265Y-116309851D01*
X105820129Y-116421111D01*
X105693466Y-116561785D01*
X105598821Y-116725715D01*
X105598818Y-116725722D01*
X105550346Y-116874905D01*
X105540326Y-116905744D01*
X105520540Y-117094000D01*
X103607219Y-117094000D01*
X103576734Y-117071851D01*
X103576729Y-117071848D01*
X103403807Y-116994857D01*
X103403802Y-116994855D01*
X103258001Y-116963865D01*
X103218646Y-116955500D01*
X103029354Y-116955500D01*
X102996897Y-116962398D01*
X102844197Y-116994855D01*
X102844192Y-116994857D01*
X102671270Y-117071848D01*
X102671265Y-117071851D01*
X102518129Y-117183111D01*
X102391466Y-117323785D01*
X102296821Y-117487715D01*
X102296818Y-117487722D01*
X102266884Y-117579851D01*
X102238326Y-117667744D01*
X102218540Y-117856000D01*
X98700750Y-117856000D01*
X98831803Y-117828144D01*
X99004730Y-117751151D01*
X99157871Y-117639888D01*
X99284533Y-117499216D01*
X99379179Y-117335284D01*
X99437674Y-117155256D01*
X99457460Y-116967000D01*
X99437674Y-116778744D01*
X99379179Y-116598716D01*
X99284533Y-116434784D01*
X99157871Y-116294112D01*
X99157870Y-116294111D01*
X99004734Y-116182851D01*
X99004729Y-116182848D01*
X98831807Y-116105857D01*
X98831802Y-116105855D01*
X98686001Y-116074865D01*
X98646646Y-116066500D01*
X98457354Y-116066500D01*
X98424897Y-116073398D01*
X98272197Y-116105855D01*
X98272192Y-116105857D01*
X98099270Y-116182848D01*
X98099265Y-116182851D01*
X97946129Y-116294111D01*
X97819466Y-116434785D01*
X97724821Y-116598715D01*
X97724818Y-116598722D01*
X97667784Y-116774256D01*
X97666326Y-116778744D01*
X97646540Y-116967000D01*
X95561837Y-116967000D01*
X95569179Y-116954284D01*
X95627674Y-116774256D01*
X95647460Y-116586000D01*
X95627674Y-116397744D01*
X95569179Y-116217716D01*
X95474533Y-116053784D01*
X95347871Y-115913112D01*
X95347870Y-115913111D01*
X95194734Y-115801851D01*
X95194729Y-115801848D01*
X95021807Y-115724857D01*
X95021802Y-115724855D01*
X94876001Y-115693865D01*
X94836646Y-115685500D01*
X94647354Y-115685500D01*
X94529952Y-115710454D01*
X94490546Y-115718830D01*
X94420879Y-115713513D01*
X94365146Y-115671375D01*
X94341041Y-115605795D01*
X94340771Y-115596494D01*
X94351948Y-114300000D01*
X97900540Y-114300000D01*
X97920326Y-114488256D01*
X97920327Y-114488259D01*
X97978818Y-114668277D01*
X97978821Y-114668284D01*
X98073467Y-114832216D01*
X98200129Y-114972888D01*
X98353265Y-115084148D01*
X98353270Y-115084151D01*
X98526192Y-115161142D01*
X98526197Y-115161144D01*
X98711354Y-115200500D01*
X98711355Y-115200500D01*
X98900644Y-115200500D01*
X98900646Y-115200500D01*
X99085803Y-115161144D01*
X99258730Y-115084151D01*
X99411871Y-114972888D01*
X99538533Y-114832216D01*
X99633179Y-114668284D01*
X99691674Y-114488256D01*
X99711460Y-114300000D01*
X99691674Y-114111744D01*
X99633179Y-113931716D01*
X99538533Y-113767784D01*
X99520693Y-113747971D01*
X99490464Y-113684981D01*
X99499089Y-113615646D01*
X99520694Y-113582028D01*
X99538533Y-113562216D01*
X99633179Y-113398284D01*
X99670312Y-113284000D01*
X112886540Y-113284000D01*
X112906326Y-113472256D01*
X112906327Y-113472259D01*
X112964818Y-113652277D01*
X112964821Y-113652284D01*
X113059467Y-113816216D01*
X113176863Y-113946597D01*
X113186129Y-113956888D01*
X113339265Y-114068148D01*
X113339270Y-114068151D01*
X113512192Y-114145142D01*
X113512197Y-114145144D01*
X113697354Y-114184500D01*
X113697355Y-114184500D01*
X113886644Y-114184500D01*
X113886646Y-114184500D01*
X114071803Y-114145144D01*
X114244730Y-114068151D01*
X114397871Y-113956888D01*
X114524533Y-113816216D01*
X114619179Y-113652284D01*
X114677674Y-113472256D01*
X114697460Y-113284000D01*
X114677674Y-113095744D01*
X114619179Y-112915716D01*
X114524533Y-112751784D01*
X114397871Y-112611112D01*
X114397870Y-112611111D01*
X114244734Y-112499851D01*
X114244729Y-112499848D01*
X114071807Y-112422857D01*
X114071802Y-112422855D01*
X113926001Y-112391865D01*
X113886646Y-112383500D01*
X113697354Y-112383500D01*
X113664897Y-112390398D01*
X113512197Y-112422855D01*
X113512192Y-112422857D01*
X113339270Y-112499848D01*
X113339265Y-112499851D01*
X113186129Y-112611111D01*
X113059466Y-112751785D01*
X112964821Y-112915715D01*
X112964818Y-112915722D01*
X112906327Y-113095740D01*
X112906326Y-113095744D01*
X112886540Y-113284000D01*
X99670312Y-113284000D01*
X99691674Y-113218256D01*
X99711460Y-113030000D01*
X99691674Y-112841744D01*
X99633179Y-112661716D01*
X99538533Y-112497784D01*
X99411871Y-112357112D01*
X99411870Y-112357111D01*
X99258734Y-112245851D01*
X99258729Y-112245848D01*
X99085807Y-112168857D01*
X99085802Y-112168855D01*
X98940001Y-112137865D01*
X98900646Y-112129500D01*
X98711354Y-112129500D01*
X98678897Y-112136398D01*
X98526197Y-112168855D01*
X98526192Y-112168857D01*
X98353270Y-112245848D01*
X98353265Y-112245851D01*
X98200129Y-112357111D01*
X98073466Y-112497785D01*
X97978821Y-112661715D01*
X97978818Y-112661722D01*
X97934491Y-112798148D01*
X97920326Y-112841744D01*
X97900540Y-113030000D01*
X97920326Y-113218256D01*
X97920327Y-113218259D01*
X97978818Y-113398277D01*
X97978821Y-113398284D01*
X98073467Y-113562216D01*
X98080926Y-113570500D01*
X98091307Y-113582030D01*
X98121535Y-113645022D01*
X98112909Y-113714357D01*
X98091307Y-113747970D01*
X98073466Y-113767785D01*
X97978821Y-113931715D01*
X97978818Y-113931722D01*
X97934491Y-114068148D01*
X97920326Y-114111744D01*
X97900540Y-114300000D01*
X94351948Y-114300000D01*
X94357402Y-113667426D01*
X94346329Y-113557753D01*
X94335129Y-113505174D01*
X94300540Y-113400496D01*
X94274606Y-113360143D01*
X94254922Y-113293105D01*
X94266530Y-113240720D01*
X94277000Y-113218256D01*
X94321574Y-113122621D01*
X94341777Y-113055736D01*
X94363355Y-112913488D01*
X94370328Y-112014000D01*
X105901540Y-112014000D01*
X105921326Y-112202256D01*
X105921327Y-112202259D01*
X105979818Y-112382277D01*
X105979821Y-112382284D01*
X106074467Y-112546216D01*
X106201129Y-112686888D01*
X106354265Y-112798148D01*
X106354270Y-112798151D01*
X106527192Y-112875142D01*
X106527197Y-112875144D01*
X106712354Y-112914500D01*
X106712355Y-112914500D01*
X106901644Y-112914500D01*
X106901646Y-112914500D01*
X107086803Y-112875144D01*
X107259730Y-112798151D01*
X107412871Y-112686888D01*
X107539533Y-112546216D01*
X107634179Y-112382284D01*
X107692674Y-112202256D01*
X107712460Y-112014000D01*
X107692674Y-111825744D01*
X107634179Y-111645716D01*
X107539533Y-111481784D01*
X107412871Y-111341112D01*
X107412870Y-111341111D01*
X107259734Y-111229851D01*
X107259729Y-111229848D01*
X107086807Y-111152857D01*
X107086802Y-111152855D01*
X106941001Y-111121865D01*
X106901646Y-111113500D01*
X106712354Y-111113500D01*
X106679897Y-111120398D01*
X106527197Y-111152855D01*
X106527192Y-111152857D01*
X106354270Y-111229848D01*
X106354265Y-111229851D01*
X106201129Y-111341111D01*
X106074466Y-111481785D01*
X105979821Y-111645715D01*
X105979818Y-111645722D01*
X105925033Y-111814335D01*
X105921326Y-111825744D01*
X105901540Y-112014000D01*
X94370328Y-112014000D01*
X94375414Y-111357860D01*
X94395617Y-111290977D01*
X94448774Y-111245633D01*
X94518008Y-111236226D01*
X94525168Y-111237528D01*
X94647354Y-111263500D01*
X94647355Y-111263500D01*
X94836644Y-111263500D01*
X94836646Y-111263500D01*
X95021803Y-111224144D01*
X95194730Y-111147151D01*
X95347871Y-111035888D01*
X95474533Y-110895216D01*
X95569179Y-110731284D01*
X95627674Y-110551256D01*
X95647460Y-110363000D01*
X95634112Y-110236000D01*
X96122540Y-110236000D01*
X96142326Y-110424256D01*
X96142327Y-110424259D01*
X96200818Y-110604277D01*
X96200821Y-110604284D01*
X96295467Y-110768216D01*
X96409817Y-110895214D01*
X96422129Y-110908888D01*
X96575265Y-111020148D01*
X96575270Y-111020151D01*
X96748192Y-111097142D01*
X96748197Y-111097144D01*
X96933354Y-111136500D01*
X96933355Y-111136500D01*
X97122644Y-111136500D01*
X97122646Y-111136500D01*
X97307803Y-111097144D01*
X97480730Y-111020151D01*
X97633871Y-110908888D01*
X97760533Y-110768216D01*
X97855179Y-110604284D01*
X97913674Y-110424256D01*
X97933460Y-110236000D01*
X97913674Y-110047744D01*
X97855179Y-109867716D01*
X97760533Y-109703784D01*
X97633871Y-109563112D01*
X97601708Y-109539744D01*
X97523783Y-109483128D01*
X97481117Y-109427798D01*
X97475138Y-109358185D01*
X97507744Y-109296390D01*
X97546226Y-109269534D01*
X97607730Y-109242151D01*
X97760871Y-109130888D01*
X97887533Y-108990216D01*
X97982179Y-108826284D01*
X98040674Y-108646256D01*
X98060460Y-108458000D01*
X98040674Y-108269744D01*
X98019312Y-108204000D01*
X110346540Y-108204000D01*
X110366326Y-108392256D01*
X110366327Y-108392259D01*
X110424818Y-108572277D01*
X110424821Y-108572284D01*
X110519467Y-108736216D01*
X110636865Y-108866599D01*
X110646129Y-108876888D01*
X110799265Y-108988148D01*
X110799266Y-108988148D01*
X110799270Y-108988151D01*
X110949663Y-109055111D01*
X110950357Y-109055420D01*
X111003594Y-109100670D01*
X111023915Y-109167519D01*
X111007309Y-109230698D01*
X110932820Y-109359718D01*
X110932818Y-109359722D01*
X110886636Y-109501857D01*
X110874326Y-109539744D01*
X110854540Y-109728000D01*
X110874326Y-109916256D01*
X110874327Y-109916259D01*
X110932818Y-110096277D01*
X110932821Y-110096284D01*
X111027467Y-110260216D01*
X111154129Y-110400888D01*
X111307265Y-110512148D01*
X111307270Y-110512151D01*
X111480192Y-110589142D01*
X111480197Y-110589144D01*
X111665354Y-110628500D01*
X111665355Y-110628500D01*
X111854644Y-110628500D01*
X111854646Y-110628500D01*
X112039803Y-110589144D01*
X112212730Y-110512151D01*
X112365871Y-110400888D01*
X112492533Y-110260216D01*
X112587179Y-110096284D01*
X112645674Y-109916256D01*
X112665460Y-109728000D01*
X112645674Y-109539744D01*
X112587179Y-109359716D01*
X112492533Y-109195784D01*
X112365871Y-109055112D01*
X112365870Y-109055111D01*
X112212734Y-108943851D01*
X112212729Y-108943848D01*
X112061642Y-108876579D01*
X112008405Y-108831329D01*
X111988084Y-108764480D01*
X112004690Y-108701302D01*
X112079179Y-108572284D01*
X112137674Y-108392256D01*
X112157460Y-108204000D01*
X112137674Y-108015744D01*
X112079179Y-107835716D01*
X111984533Y-107671784D01*
X111857871Y-107531112D01*
X111854686Y-107528798D01*
X111704734Y-107419851D01*
X111704729Y-107419848D01*
X111531807Y-107342857D01*
X111531802Y-107342855D01*
X111386001Y-107311865D01*
X111346646Y-107303500D01*
X111157354Y-107303500D01*
X111124897Y-107310398D01*
X110972197Y-107342855D01*
X110972192Y-107342857D01*
X110799270Y-107419848D01*
X110799265Y-107419851D01*
X110646129Y-107531111D01*
X110519466Y-107671785D01*
X110424821Y-107835715D01*
X110424818Y-107835722D01*
X110366327Y-108015740D01*
X110366326Y-108015744D01*
X110346540Y-108204000D01*
X98019312Y-108204000D01*
X97982179Y-108089716D01*
X97887533Y-107925784D01*
X97760871Y-107785112D01*
X97760870Y-107785111D01*
X97607734Y-107673851D01*
X97607729Y-107673848D01*
X97434807Y-107596857D01*
X97434802Y-107596855D01*
X97289001Y-107565865D01*
X97249646Y-107557500D01*
X97060354Y-107557500D01*
X97027897Y-107564398D01*
X96875197Y-107596855D01*
X96875192Y-107596857D01*
X96702270Y-107673848D01*
X96702265Y-107673851D01*
X96549129Y-107785111D01*
X96422466Y-107925785D01*
X96327821Y-108089715D01*
X96327818Y-108089722D01*
X96269327Y-108269740D01*
X96269326Y-108269744D01*
X96249540Y-108458000D01*
X96269326Y-108646256D01*
X96269327Y-108646259D01*
X96327818Y-108826277D01*
X96327821Y-108826284D01*
X96422467Y-108990216D01*
X96485455Y-109060171D01*
X96549129Y-109130888D01*
X96659216Y-109210871D01*
X96701882Y-109266201D01*
X96707861Y-109335814D01*
X96675255Y-109397609D01*
X96636768Y-109424468D01*
X96575267Y-109451850D01*
X96575265Y-109451851D01*
X96422129Y-109563111D01*
X96295466Y-109703785D01*
X96200821Y-109867715D01*
X96200818Y-109867722D01*
X96142327Y-110047740D01*
X96142326Y-110047744D01*
X96122540Y-110236000D01*
X95634112Y-110236000D01*
X95627674Y-110174744D01*
X95569179Y-109994716D01*
X95474533Y-109830784D01*
X95347871Y-109690112D01*
X95347870Y-109690111D01*
X95194734Y-109578851D01*
X95194729Y-109578848D01*
X95021807Y-109501857D01*
X95021802Y-109501855D01*
X94876001Y-109470865D01*
X94836646Y-109462500D01*
X94647354Y-109462500D01*
X94647352Y-109462500D01*
X94540654Y-109485179D01*
X94470987Y-109479863D01*
X94415254Y-109437725D01*
X94391149Y-109372145D01*
X94390878Y-109362946D01*
X94406013Y-107410495D01*
X94426216Y-107343614D01*
X94479373Y-107298270D01*
X94548607Y-107288863D01*
X94611936Y-107318379D01*
X94622151Y-107328479D01*
X94644129Y-107352888D01*
X94644132Y-107352890D01*
X94797265Y-107464148D01*
X94797270Y-107464151D01*
X94970192Y-107541142D01*
X94970197Y-107541144D01*
X95155354Y-107580500D01*
X95155355Y-107580500D01*
X95344644Y-107580500D01*
X95344646Y-107580500D01*
X95529803Y-107541144D01*
X95702730Y-107464151D01*
X95855871Y-107352888D01*
X95982533Y-107212216D01*
X96077179Y-107048284D01*
X96135674Y-106868256D01*
X96155460Y-106680000D01*
X96135674Y-106491744D01*
X96077179Y-106311716D01*
X96069837Y-106299000D01*
X102726540Y-106299000D01*
X102746326Y-106487256D01*
X102746327Y-106487259D01*
X102804818Y-106667277D01*
X102804821Y-106667284D01*
X102899467Y-106831216D01*
X102932821Y-106868259D01*
X103026129Y-106971888D01*
X103179265Y-107083148D01*
X103179270Y-107083151D01*
X103352192Y-107160142D01*
X103352197Y-107160144D01*
X103537354Y-107199500D01*
X103537355Y-107199500D01*
X103726644Y-107199500D01*
X103726646Y-107199500D01*
X103911803Y-107160144D01*
X104084730Y-107083151D01*
X104237871Y-106971888D01*
X104364533Y-106831216D01*
X104459179Y-106667284D01*
X104517674Y-106487256D01*
X104537460Y-106299000D01*
X104517674Y-106110744D01*
X104459179Y-105930716D01*
X104364533Y-105766784D01*
X104237871Y-105626112D01*
X104168763Y-105575902D01*
X104084734Y-105514851D01*
X104084729Y-105514848D01*
X103911807Y-105437857D01*
X103911802Y-105437855D01*
X103766001Y-105406865D01*
X103726646Y-105398500D01*
X103537354Y-105398500D01*
X103504897Y-105405398D01*
X103352197Y-105437855D01*
X103352192Y-105437857D01*
X103179270Y-105514848D01*
X103179265Y-105514851D01*
X103026129Y-105626111D01*
X102899466Y-105766785D01*
X102804821Y-105930715D01*
X102804818Y-105930722D01*
X102746327Y-106110740D01*
X102746326Y-106110744D01*
X102726540Y-106299000D01*
X96069837Y-106299000D01*
X95982533Y-106147784D01*
X95855871Y-106007112D01*
X95855870Y-106007111D01*
X95702734Y-105895851D01*
X95702729Y-105895848D01*
X95529807Y-105818857D01*
X95529802Y-105818855D01*
X95406509Y-105792649D01*
X95371884Y-105785289D01*
X95310403Y-105752098D01*
X95276627Y-105690935D01*
X95281279Y-105621220D01*
X95322883Y-105565088D01*
X95371884Y-105542710D01*
X95529803Y-105509144D01*
X95702730Y-105432151D01*
X95855871Y-105320888D01*
X95982533Y-105180216D01*
X96077179Y-105016284D01*
X96135674Y-104836256D01*
X96155460Y-104648000D01*
X96135674Y-104459744D01*
X96077179Y-104279716D01*
X96069837Y-104267000D01*
X99170540Y-104267000D01*
X99190326Y-104455256D01*
X99190327Y-104455259D01*
X99248818Y-104635277D01*
X99248821Y-104635284D01*
X99343467Y-104799216D01*
X99470129Y-104939888D01*
X99623265Y-105051148D01*
X99623270Y-105051151D01*
X99796192Y-105128142D01*
X99796197Y-105128144D01*
X99981354Y-105167500D01*
X99981355Y-105167500D01*
X100170644Y-105167500D01*
X100170646Y-105167500D01*
X100355803Y-105128144D01*
X100528730Y-105051151D01*
X100681871Y-104939888D01*
X100808533Y-104799216D01*
X100903179Y-104635284D01*
X100940312Y-104521000D01*
X104631540Y-104521000D01*
X104651326Y-104709256D01*
X104651327Y-104709259D01*
X104709818Y-104889277D01*
X104709821Y-104889284D01*
X104804467Y-105053216D01*
X104907369Y-105167500D01*
X104931129Y-105193888D01*
X105084265Y-105305148D01*
X105084270Y-105305151D01*
X105257192Y-105382142D01*
X105257197Y-105382144D01*
X105442354Y-105421500D01*
X105442355Y-105421500D01*
X105631644Y-105421500D01*
X105631646Y-105421500D01*
X105816803Y-105382144D01*
X105989730Y-105305151D01*
X106142871Y-105193888D01*
X106269533Y-105053216D01*
X106364179Y-104889284D01*
X106422674Y-104709256D01*
X106442460Y-104521000D01*
X106422674Y-104332744D01*
X106364179Y-104152716D01*
X106269533Y-103988784D01*
X106142871Y-103848112D01*
X106142870Y-103848111D01*
X105989734Y-103736851D01*
X105989729Y-103736848D01*
X105816807Y-103659857D01*
X105816802Y-103659855D01*
X105671001Y-103628865D01*
X105631646Y-103620500D01*
X105442354Y-103620500D01*
X105392375Y-103631123D01*
X105257199Y-103659855D01*
X105131142Y-103715980D01*
X105079142Y-103722951D01*
X105057601Y-103755780D01*
X105050179Y-103761617D01*
X104931127Y-103848113D01*
X104804466Y-103988785D01*
X104709821Y-104152715D01*
X104709818Y-104152722D01*
X104663636Y-104294857D01*
X104651326Y-104332744D01*
X104631540Y-104521000D01*
X100940312Y-104521000D01*
X100961674Y-104455256D01*
X100981460Y-104267000D01*
X100961674Y-104078744D01*
X100903179Y-103898716D01*
X100808533Y-103734784D01*
X100733517Y-103651471D01*
X100703288Y-103588481D01*
X100711913Y-103519146D01*
X100733518Y-103485528D01*
X100808533Y-103402216D01*
X100903179Y-103238284D01*
X100933779Y-103144104D01*
X100973216Y-103086430D01*
X101037574Y-103059231D01*
X101106420Y-103071145D01*
X101157897Y-103118389D01*
X101159097Y-103120423D01*
X101248465Y-103275214D01*
X101375129Y-103415888D01*
X101528265Y-103527148D01*
X101528270Y-103527151D01*
X101701192Y-103604142D01*
X101701197Y-103604144D01*
X101886354Y-103643500D01*
X101886355Y-103643500D01*
X102075644Y-103643500D01*
X102075646Y-103643500D01*
X102260803Y-103604144D01*
X102433730Y-103527151D01*
X102586871Y-103415888D01*
X102713533Y-103275216D01*
X102808179Y-103111284D01*
X102866674Y-102931256D01*
X102886460Y-102743000D01*
X103615540Y-102743000D01*
X103635326Y-102931256D01*
X103635327Y-102931259D01*
X103693818Y-103111277D01*
X103693821Y-103111284D01*
X103788467Y-103275216D01*
X103902817Y-103402214D01*
X103915129Y-103415888D01*
X104068265Y-103527148D01*
X104068270Y-103527151D01*
X104241192Y-103604142D01*
X104241197Y-103604144D01*
X104426354Y-103643500D01*
X104426355Y-103643500D01*
X104615644Y-103643500D01*
X104615646Y-103643500D01*
X104800803Y-103604144D01*
X104926858Y-103548019D01*
X104978856Y-103541046D01*
X105000399Y-103508218D01*
X105007795Y-103502401D01*
X105126871Y-103415888D01*
X105253533Y-103275216D01*
X105348179Y-103111284D01*
X105406674Y-102931256D01*
X105426460Y-102743000D01*
X106663540Y-102743000D01*
X106683326Y-102931256D01*
X106683327Y-102931259D01*
X106741818Y-103111277D01*
X106741821Y-103111284D01*
X106836467Y-103275216D01*
X106950817Y-103402214D01*
X106963129Y-103415888D01*
X107116265Y-103527148D01*
X107116270Y-103527151D01*
X107289192Y-103604142D01*
X107289197Y-103604144D01*
X107474354Y-103643500D01*
X107474355Y-103643500D01*
X107663644Y-103643500D01*
X107663646Y-103643500D01*
X107848803Y-103604144D01*
X108021730Y-103527151D01*
X108174871Y-103415888D01*
X108301533Y-103275216D01*
X108396179Y-103111284D01*
X108454674Y-102931256D01*
X108474460Y-102743000D01*
X108454674Y-102554744D01*
X108396179Y-102374716D01*
X108301533Y-102210784D01*
X108174871Y-102070112D01*
X108174870Y-102070111D01*
X108021734Y-101958851D01*
X108021729Y-101958848D01*
X107848807Y-101881857D01*
X107848802Y-101881855D01*
X107703001Y-101850865D01*
X107663646Y-101842500D01*
X107474354Y-101842500D01*
X107441897Y-101849398D01*
X107289197Y-101881855D01*
X107289192Y-101881857D01*
X107116270Y-101958848D01*
X107116265Y-101958851D01*
X106963129Y-102070111D01*
X106836466Y-102210785D01*
X106741821Y-102374715D01*
X106741818Y-102374722D01*
X106683643Y-102553768D01*
X106683326Y-102554744D01*
X106663540Y-102743000D01*
X105426460Y-102743000D01*
X105406674Y-102554744D01*
X105348179Y-102374716D01*
X105253533Y-102210784D01*
X105126871Y-102070112D01*
X105126870Y-102070111D01*
X104973734Y-101958851D01*
X104973729Y-101958848D01*
X104800807Y-101881857D01*
X104800802Y-101881855D01*
X104655001Y-101850865D01*
X104615646Y-101842500D01*
X104426354Y-101842500D01*
X104393897Y-101849398D01*
X104241197Y-101881855D01*
X104241192Y-101881857D01*
X104068270Y-101958848D01*
X104068265Y-101958851D01*
X103915129Y-102070111D01*
X103788466Y-102210785D01*
X103693821Y-102374715D01*
X103693818Y-102374722D01*
X103635643Y-102553768D01*
X103635326Y-102554744D01*
X103615540Y-102743000D01*
X102886460Y-102743000D01*
X102866674Y-102554744D01*
X102808179Y-102374716D01*
X102713533Y-102210784D01*
X102586871Y-102070112D01*
X102586870Y-102070111D01*
X102433734Y-101958851D01*
X102433729Y-101958848D01*
X102260807Y-101881857D01*
X102260802Y-101881855D01*
X102115001Y-101850865D01*
X102075646Y-101842500D01*
X101886354Y-101842500D01*
X101853897Y-101849398D01*
X101701197Y-101881855D01*
X101701192Y-101881857D01*
X101528270Y-101958848D01*
X101528265Y-101958851D01*
X101375129Y-102070111D01*
X101248466Y-102210785D01*
X101153821Y-102374715D01*
X101153819Y-102374719D01*
X101123220Y-102468895D01*
X101083782Y-102526570D01*
X101019424Y-102553768D01*
X100950577Y-102541853D01*
X100899101Y-102494609D01*
X100897902Y-102492576D01*
X100829857Y-102374719D01*
X100808533Y-102337784D01*
X100681871Y-102197112D01*
X100681870Y-102197111D01*
X100528734Y-102085851D01*
X100528729Y-102085848D01*
X100355807Y-102008857D01*
X100355802Y-102008855D01*
X100210001Y-101977865D01*
X100170646Y-101969500D01*
X99981354Y-101969500D01*
X99948897Y-101976398D01*
X99796197Y-102008855D01*
X99796192Y-102008857D01*
X99623270Y-102085848D01*
X99623265Y-102085851D01*
X99470129Y-102197111D01*
X99343466Y-102337785D01*
X99248821Y-102501715D01*
X99248818Y-102501722D01*
X99190327Y-102681740D01*
X99190326Y-102681744D01*
X99170540Y-102870000D01*
X99190326Y-103058256D01*
X99190327Y-103058259D01*
X99248818Y-103238277D01*
X99248821Y-103238284D01*
X99343467Y-103402216D01*
X99380859Y-103443744D01*
X99418481Y-103485528D01*
X99448711Y-103548520D01*
X99440085Y-103617855D01*
X99418481Y-103651472D01*
X99343466Y-103734785D01*
X99248821Y-103898715D01*
X99248818Y-103898722D01*
X99190327Y-104078740D01*
X99190326Y-104078744D01*
X99170540Y-104267000D01*
X96069837Y-104267000D01*
X96032308Y-104201997D01*
X96015836Y-104134100D01*
X96032308Y-104078002D01*
X96077179Y-104000284D01*
X96135674Y-103820256D01*
X96155460Y-103632000D01*
X96135674Y-103443744D01*
X96077179Y-103263716D01*
X95982533Y-103099784D01*
X95855871Y-102959112D01*
X95818889Y-102932243D01*
X95702734Y-102847851D01*
X95702729Y-102847848D01*
X95529807Y-102770857D01*
X95529802Y-102770855D01*
X95384001Y-102739865D01*
X95344646Y-102731500D01*
X95155354Y-102731500D01*
X95122897Y-102738398D01*
X94970197Y-102770855D01*
X94970192Y-102770857D01*
X94797270Y-102847848D01*
X94797265Y-102847851D01*
X94638871Y-102962932D01*
X94637245Y-102960694D01*
X94585211Y-102985647D01*
X94515878Y-102977001D01*
X94462226Y-102932243D01*
X94441289Y-102865585D01*
X94441271Y-102862300D01*
X94448794Y-101891888D01*
X94454010Y-101219000D01*
X114537540Y-101219000D01*
X114557326Y-101407256D01*
X114557327Y-101407259D01*
X114615818Y-101587277D01*
X114615821Y-101587284D01*
X114710467Y-101751216D01*
X114792660Y-101842500D01*
X114837129Y-101891888D01*
X114990265Y-102003148D01*
X114990270Y-102003151D01*
X115163192Y-102080142D01*
X115163197Y-102080144D01*
X115348354Y-102119500D01*
X115348355Y-102119500D01*
X115537644Y-102119500D01*
X115537646Y-102119500D01*
X115722803Y-102080144D01*
X115895730Y-102003151D01*
X116048871Y-101891888D01*
X116175533Y-101751216D01*
X116270179Y-101587284D01*
X116328674Y-101407256D01*
X116348460Y-101219000D01*
X116328674Y-101030744D01*
X116270179Y-100850716D01*
X116175533Y-100686784D01*
X116048871Y-100546112D01*
X116048870Y-100546111D01*
X115895734Y-100434851D01*
X115895729Y-100434848D01*
X115722807Y-100357857D01*
X115722802Y-100357855D01*
X115577001Y-100326865D01*
X115537646Y-100318500D01*
X115348354Y-100318500D01*
X115315897Y-100325398D01*
X115163197Y-100357855D01*
X115163192Y-100357857D01*
X114990270Y-100434848D01*
X114990265Y-100434851D01*
X114837129Y-100546111D01*
X114710466Y-100686785D01*
X114615821Y-100850715D01*
X114615818Y-100850722D01*
X114557327Y-101030740D01*
X114557326Y-101030744D01*
X114537540Y-101219000D01*
X94454010Y-101219000D01*
X94465824Y-99695000D01*
X96376540Y-99695000D01*
X96396326Y-99883256D01*
X96396327Y-99883259D01*
X96454818Y-100063277D01*
X96454821Y-100063284D01*
X96549467Y-100227216D01*
X96619053Y-100304499D01*
X96676129Y-100367888D01*
X96829265Y-100479148D01*
X96829270Y-100479151D01*
X97002192Y-100556142D01*
X97002197Y-100556144D01*
X97187354Y-100595500D01*
X97187355Y-100595500D01*
X97376644Y-100595500D01*
X97376646Y-100595500D01*
X97561803Y-100556144D01*
X97734730Y-100479151D01*
X97887871Y-100367888D01*
X98014533Y-100227216D01*
X98109179Y-100063284D01*
X98167674Y-99883256D01*
X98187460Y-99695000D01*
X98174112Y-99568000D01*
X100313540Y-99568000D01*
X100333326Y-99756256D01*
X100333327Y-99756259D01*
X100391818Y-99936277D01*
X100391821Y-99936284D01*
X100486467Y-100100216D01*
X100600817Y-100227214D01*
X100613129Y-100240888D01*
X100766265Y-100352148D01*
X100766270Y-100352151D01*
X100939192Y-100429142D01*
X100939197Y-100429144D01*
X101124354Y-100468500D01*
X101124355Y-100468500D01*
X101313644Y-100468500D01*
X101313646Y-100468500D01*
X101498803Y-100429144D01*
X101671730Y-100352151D01*
X101824871Y-100240888D01*
X101951533Y-100100216D01*
X102046179Y-99936284D01*
X102104674Y-99756256D01*
X102124460Y-99568000D01*
X102104674Y-99379744D01*
X102046179Y-99199716D01*
X101951533Y-99035784D01*
X101824871Y-98895112D01*
X101824870Y-98895111D01*
X101671734Y-98783851D01*
X101671729Y-98783848D01*
X101498807Y-98706857D01*
X101498802Y-98706855D01*
X101353001Y-98675865D01*
X101313646Y-98667500D01*
X101124354Y-98667500D01*
X101091897Y-98674398D01*
X100939197Y-98706855D01*
X100939192Y-98706857D01*
X100766270Y-98783848D01*
X100766265Y-98783851D01*
X100613129Y-98895111D01*
X100486466Y-99035785D01*
X100391821Y-99199715D01*
X100391818Y-99199722D01*
X100333327Y-99379740D01*
X100333326Y-99379744D01*
X100313540Y-99568000D01*
X98174112Y-99568000D01*
X98167674Y-99506744D01*
X98109179Y-99326716D01*
X98014533Y-99162784D01*
X97887871Y-99022112D01*
X97887870Y-99022111D01*
X97734734Y-98910851D01*
X97734729Y-98910848D01*
X97561807Y-98833857D01*
X97561802Y-98833855D01*
X97416001Y-98802865D01*
X97376646Y-98794500D01*
X97187354Y-98794500D01*
X97154897Y-98801398D01*
X97002197Y-98833855D01*
X97002192Y-98833857D01*
X96829270Y-98910848D01*
X96829265Y-98910851D01*
X96676129Y-99022111D01*
X96549466Y-99162785D01*
X96454821Y-99326715D01*
X96454818Y-99326722D01*
X96396327Y-99506740D01*
X96396326Y-99506744D01*
X96376540Y-99695000D01*
X94465824Y-99695000D01*
X94478623Y-98044000D01*
X114537540Y-98044000D01*
X114557326Y-98232256D01*
X114557327Y-98232259D01*
X114615818Y-98412277D01*
X114615821Y-98412284D01*
X114710467Y-98576216D01*
X114792660Y-98667500D01*
X114837129Y-98716888D01*
X114990265Y-98828148D01*
X114990270Y-98828151D01*
X115163192Y-98905142D01*
X115163197Y-98905144D01*
X115348354Y-98944500D01*
X115348355Y-98944500D01*
X115537644Y-98944500D01*
X115537646Y-98944500D01*
X115722803Y-98905144D01*
X115895730Y-98828151D01*
X116048871Y-98716888D01*
X116175533Y-98576216D01*
X116270179Y-98412284D01*
X116328674Y-98232256D01*
X116348460Y-98044000D01*
X116328674Y-97855744D01*
X116271546Y-97679922D01*
X116270181Y-97675722D01*
X116270180Y-97675721D01*
X116270179Y-97675716D01*
X116175533Y-97511784D01*
X116048871Y-97371112D01*
X116040448Y-97364992D01*
X115895734Y-97259851D01*
X115895729Y-97259848D01*
X115722807Y-97182857D01*
X115722802Y-97182855D01*
X115577001Y-97151865D01*
X115537646Y-97143500D01*
X115348354Y-97143500D01*
X115315897Y-97150398D01*
X115163197Y-97182855D01*
X115163192Y-97182857D01*
X114990270Y-97259848D01*
X114990265Y-97259851D01*
X114837129Y-97371111D01*
X114710466Y-97511785D01*
X114615821Y-97675715D01*
X114615818Y-97675722D01*
X114578889Y-97789380D01*
X114557326Y-97855744D01*
X114537540Y-98044000D01*
X94478623Y-98044000D01*
X94480597Y-97789380D01*
X94480596Y-97789378D01*
X94480623Y-97785999D01*
X94481682Y-97786007D01*
X94497172Y-97722405D01*
X94547782Y-97674234D01*
X94604504Y-97660500D01*
X96014990Y-97660500D01*
X96015000Y-97660500D01*
X96122456Y-97648947D01*
X96173967Y-97637741D01*
X96208197Y-97626347D01*
X96276497Y-97603616D01*
X96276501Y-97603613D01*
X96276504Y-97603613D01*
X96397543Y-97525825D01*
X96450347Y-97480070D01*
X96544567Y-97371336D01*
X96604338Y-97240459D01*
X96624023Y-97173420D01*
X96624024Y-97173416D01*
X96644500Y-97031000D01*
X96644500Y-94758500D01*
X96664185Y-94691461D01*
X96716989Y-94645706D01*
X96768500Y-94634500D01*
X100768210Y-94634500D01*
X100835249Y-94654185D01*
G37*
%TD.AperFunction*%
%TA.AperFunction,Conductor*%
G36*
X118704586Y-105243591D02*
G01*
X118736010Y-105305995D01*
X118738033Y-105328376D01*
X118731455Y-116434955D01*
X118711731Y-116501983D01*
X118658900Y-116547707D01*
X118589735Y-116557609D01*
X118526197Y-116528547D01*
X118500068Y-116496882D01*
X118464216Y-116434785D01*
X118464173Y-116434710D01*
X118337511Y-116294038D01*
X118337510Y-116294037D01*
X118184374Y-116182777D01*
X118184369Y-116182774D01*
X118011447Y-116105783D01*
X118011442Y-116105781D01*
X117938616Y-116090302D01*
X117877134Y-116057110D01*
X117843358Y-115995947D01*
X117848010Y-115926232D01*
X117889615Y-115870100D01*
X117893258Y-115867447D01*
X117908901Y-115856495D01*
X118075995Y-115689401D01*
X118211535Y-115495830D01*
X118311403Y-115281663D01*
X118372563Y-115053408D01*
X118393159Y-114818000D01*
X118372563Y-114582592D01*
X118311403Y-114354337D01*
X118211535Y-114140171D01*
X118191631Y-114111744D01*
X118075994Y-113946597D01*
X117908902Y-113779506D01*
X117908896Y-113779501D01*
X117723342Y-113649575D01*
X117679717Y-113594998D01*
X117672523Y-113525500D01*
X117704046Y-113463145D01*
X117723342Y-113446425D01*
X117788935Y-113400496D01*
X117908901Y-113316495D01*
X118075995Y-113149401D01*
X118211535Y-112955830D01*
X118311403Y-112741663D01*
X118372563Y-112513408D01*
X118393159Y-112278000D01*
X118372563Y-112042592D01*
X118326126Y-111869285D01*
X118311405Y-111814344D01*
X118311404Y-111814343D01*
X118311403Y-111814337D01*
X118211535Y-111600171D01*
X118075995Y-111406599D01*
X118075994Y-111406597D01*
X117908902Y-111239506D01*
X117908896Y-111239501D01*
X117723342Y-111109575D01*
X117679717Y-111054998D01*
X117672523Y-110985500D01*
X117704046Y-110923145D01*
X117723342Y-110906425D01*
X117745526Y-110890891D01*
X117908901Y-110776495D01*
X118075995Y-110609401D01*
X118211535Y-110415830D01*
X118311403Y-110201663D01*
X118372563Y-109973408D01*
X118393159Y-109738000D01*
X118372563Y-109502592D01*
X118311403Y-109274337D01*
X118211535Y-109060171D01*
X118208208Y-109055420D01*
X118075996Y-108866600D01*
X118035673Y-108826277D01*
X117953679Y-108744283D01*
X117920196Y-108682963D01*
X117925180Y-108613271D01*
X117967051Y-108557337D01*
X117998029Y-108540422D01*
X118129586Y-108491354D01*
X118129593Y-108491350D01*
X118244687Y-108405190D01*
X118244690Y-108405187D01*
X118330850Y-108290093D01*
X118330854Y-108290086D01*
X118381096Y-108155379D01*
X118381098Y-108155372D01*
X118387499Y-108095844D01*
X118387500Y-108095827D01*
X118387500Y-107448000D01*
X117471186Y-107448000D01*
X117496993Y-107407844D01*
X117537500Y-107269889D01*
X117537500Y-107126111D01*
X117496993Y-106988156D01*
X117471186Y-106948000D01*
X118387500Y-106948000D01*
X118387500Y-106300172D01*
X118387499Y-106300155D01*
X118381098Y-106240627D01*
X118381096Y-106240620D01*
X118330854Y-106105913D01*
X118330850Y-106105906D01*
X118244690Y-105990813D01*
X118244278Y-105990504D01*
X118243968Y-105990090D01*
X118238418Y-105984540D01*
X118239216Y-105983741D01*
X118202407Y-105934570D01*
X118197423Y-105864878D01*
X118226438Y-105808266D01*
X118334533Y-105688216D01*
X118429179Y-105524284D01*
X118487674Y-105344256D01*
X118490713Y-105315339D01*
X118517296Y-105250728D01*
X118574593Y-105210742D01*
X118644412Y-105208082D01*
X118704586Y-105243591D01*
G37*
%TD.AperFunction*%
%TD*%
%TA.AperFunction,Conductor*%
%TO.N,/Vin*%
G36*
X89379039Y-97680185D02*
G01*
X89424794Y-97732989D01*
X89436000Y-97784500D01*
X89436000Y-98810000D01*
X90585272Y-98810000D01*
X90562900Y-98857543D01*
X90532127Y-99018862D01*
X90542439Y-99182766D01*
X90583780Y-99310000D01*
X89436000Y-99310000D01*
X89436000Y-100357844D01*
X89442401Y-100417372D01*
X89442403Y-100417379D01*
X89492645Y-100552086D01*
X89492649Y-100552093D01*
X89578809Y-100667187D01*
X89578812Y-100667190D01*
X89693906Y-100753350D01*
X89693913Y-100753354D01*
X89828620Y-100803596D01*
X89828627Y-100803598D01*
X89888155Y-100809999D01*
X89888172Y-100810000D01*
X90936000Y-100810000D01*
X90936000Y-99664310D01*
X90944817Y-99669158D01*
X91103886Y-99710000D01*
X91226894Y-99710000D01*
X91348933Y-99694583D01*
X91436000Y-99660110D01*
X91436000Y-100810000D01*
X92483828Y-100810000D01*
X92483844Y-100809999D01*
X92543372Y-100803598D01*
X92543379Y-100803596D01*
X92678086Y-100753354D01*
X92678093Y-100753350D01*
X92793187Y-100667190D01*
X92793190Y-100667187D01*
X92879350Y-100552093D01*
X92879354Y-100552086D01*
X92929596Y-100417379D01*
X92929598Y-100417372D01*
X92935999Y-100357844D01*
X92936000Y-100357827D01*
X92936000Y-99310000D01*
X91786728Y-99310000D01*
X91809100Y-99262457D01*
X91839873Y-99101138D01*
X91829561Y-98937234D01*
X91788220Y-98810000D01*
X92936000Y-98810000D01*
X92936000Y-97784500D01*
X92955685Y-97717461D01*
X93008489Y-97671706D01*
X93060000Y-97660500D01*
X93851116Y-97660500D01*
X93918155Y-97680185D01*
X93963910Y-97732989D01*
X93975112Y-97785461D01*
X93879775Y-110083882D01*
X93873711Y-110121237D01*
X93856326Y-110174742D01*
X93856326Y-110174743D01*
X93836540Y-110363000D01*
X93856327Y-110551261D01*
X93869469Y-110591709D01*
X93875534Y-110630987D01*
X93857870Y-112909569D01*
X93837667Y-112976454D01*
X93784510Y-113021798D01*
X93732356Y-113031008D01*
X93732356Y-113032500D01*
X89275500Y-113032500D01*
X89208461Y-113012815D01*
X89162706Y-112960011D01*
X89151500Y-112908500D01*
X89151500Y-97784500D01*
X89171185Y-97717461D01*
X89223989Y-97671706D01*
X89275500Y-97660500D01*
X89312000Y-97660500D01*
X89379039Y-97680185D01*
G37*
%TD.AperFunction*%
%TD*%
%TA.AperFunction,Conductor*%
%TO.N,/Vout*%
G36*
X93794966Y-113557685D02*
G01*
X93840721Y-113610489D01*
X93851921Y-113663068D01*
X93730512Y-127746571D01*
X93710252Y-127813436D01*
X93657055Y-127858734D01*
X93606518Y-127869500D01*
X89275500Y-127869500D01*
X89208461Y-127849815D01*
X89162706Y-127797011D01*
X89151500Y-127745500D01*
X89151500Y-123190004D01*
X89605093Y-123190004D01*
X89624692Y-123451545D01*
X89624693Y-123451550D01*
X89683058Y-123707270D01*
X89778883Y-123951426D01*
X89778882Y-123951426D01*
X89910027Y-124178573D01*
X89957874Y-124238571D01*
X90757452Y-123438993D01*
X90767188Y-123468956D01*
X90855186Y-123607619D01*
X90974903Y-123720040D01*
X91109510Y-123794041D01*
X90310830Y-124592720D01*
X90482546Y-124709793D01*
X90482550Y-124709795D01*
X90718854Y-124823594D01*
X90718858Y-124823595D01*
X90969494Y-124900907D01*
X90969500Y-124900909D01*
X91228848Y-124939999D01*
X91228857Y-124940000D01*
X91491143Y-124940000D01*
X91491151Y-124939999D01*
X91750499Y-124900909D01*
X91750505Y-124900907D01*
X92001143Y-124823595D01*
X92237445Y-124709798D01*
X92237447Y-124709797D01*
X92409168Y-124592720D01*
X91607534Y-123791086D01*
X91675629Y-123764126D01*
X91808492Y-123667595D01*
X91913175Y-123541055D01*
X91961631Y-123438078D01*
X92762125Y-124238572D01*
X92809971Y-124178573D01*
X92941116Y-123951426D01*
X93036941Y-123707270D01*
X93095306Y-123451550D01*
X93095307Y-123451545D01*
X93114907Y-123190004D01*
X93114907Y-123189995D01*
X93095307Y-122928454D01*
X93095306Y-122928449D01*
X93036941Y-122672729D01*
X92941116Y-122428573D01*
X92941117Y-122428573D01*
X92809972Y-122201426D01*
X92762124Y-122141427D01*
X91962546Y-122941004D01*
X91952812Y-122911044D01*
X91864814Y-122772381D01*
X91745097Y-122659960D01*
X91610489Y-122585958D01*
X92409168Y-121787278D01*
X92237454Y-121670206D01*
X92237445Y-121670201D01*
X92001142Y-121556404D01*
X92001144Y-121556404D01*
X91750505Y-121479092D01*
X91750499Y-121479090D01*
X91491151Y-121440000D01*
X91228848Y-121440000D01*
X90969500Y-121479090D01*
X90969494Y-121479092D01*
X90718858Y-121556404D01*
X90718854Y-121556405D01*
X90482547Y-121670205D01*
X90482539Y-121670210D01*
X90310830Y-121787277D01*
X91112466Y-122588913D01*
X91044371Y-122615874D01*
X90911508Y-122712405D01*
X90806825Y-122838945D01*
X90758368Y-122941920D01*
X89957875Y-122141427D01*
X89957874Y-122141427D01*
X89910028Y-122201425D01*
X89778883Y-122428573D01*
X89683058Y-122672729D01*
X89624693Y-122928449D01*
X89624692Y-122928454D01*
X89605093Y-123189995D01*
X89605093Y-123190004D01*
X89151500Y-123190004D01*
X89151500Y-113662000D01*
X89171185Y-113594961D01*
X89223989Y-113549206D01*
X89275500Y-113538000D01*
X93727927Y-113538000D01*
X93794966Y-113557685D01*
G37*
%TD.AperFunction*%
%TD*%
%TA.AperFunction,Conductor*%
%TO.N,GND*%
G36*
X88646000Y-97155000D02*
G01*
X88646000Y-127745500D01*
X88626315Y-127812539D01*
X88573511Y-127858294D01*
X88522000Y-127869500D01*
X84586875Y-127869500D01*
X84577146Y-127869118D01*
X84376241Y-127853306D01*
X84357022Y-127850262D01*
X84165816Y-127804357D01*
X84147311Y-127798344D01*
X83965642Y-127723094D01*
X83948305Y-127714260D01*
X83780648Y-127611520D01*
X83764907Y-127600084D01*
X83615381Y-127472378D01*
X83601621Y-127458618D01*
X83473915Y-127309092D01*
X83462479Y-127293351D01*
X83359739Y-127125694D01*
X83350905Y-127108357D01*
X83275655Y-126926688D01*
X83269642Y-126908183D01*
X83223737Y-126716977D01*
X83220693Y-126697758D01*
X83204882Y-126496853D01*
X83204500Y-126487124D01*
X83204500Y-124487844D01*
X84610000Y-124487844D01*
X84616401Y-124547372D01*
X84616403Y-124547379D01*
X84666645Y-124682086D01*
X84666649Y-124682093D01*
X84752809Y-124797187D01*
X84752812Y-124797190D01*
X84867906Y-124883350D01*
X84867913Y-124883354D01*
X85002620Y-124933596D01*
X85002627Y-124933598D01*
X85062155Y-124939999D01*
X85062172Y-124940000D01*
X86110000Y-124940000D01*
X86110000Y-123794310D01*
X86118817Y-123799158D01*
X86277886Y-123840000D01*
X86400894Y-123840000D01*
X86522933Y-123824583D01*
X86610000Y-123790110D01*
X86610000Y-124940000D01*
X87657828Y-124940000D01*
X87657844Y-124939999D01*
X87717372Y-124933598D01*
X87717379Y-124933596D01*
X87852086Y-124883354D01*
X87852093Y-124883350D01*
X87967187Y-124797190D01*
X87967190Y-124797187D01*
X88053350Y-124682093D01*
X88053354Y-124682086D01*
X88103596Y-124547379D01*
X88103598Y-124547372D01*
X88109999Y-124487844D01*
X88110000Y-124487827D01*
X88110000Y-123440000D01*
X86960728Y-123440000D01*
X86983100Y-123392457D01*
X87013873Y-123231138D01*
X87003561Y-123067234D01*
X86962220Y-122940000D01*
X88110000Y-122940000D01*
X88110000Y-121892172D01*
X88109999Y-121892155D01*
X88103598Y-121832627D01*
X88103596Y-121832620D01*
X88053354Y-121697913D01*
X88053350Y-121697906D01*
X87967190Y-121582812D01*
X87967187Y-121582809D01*
X87852093Y-121496649D01*
X87852086Y-121496645D01*
X87717379Y-121446403D01*
X87717372Y-121446401D01*
X87657844Y-121440000D01*
X86610000Y-121440000D01*
X86610000Y-122585689D01*
X86601183Y-122580842D01*
X86442114Y-122540000D01*
X86319106Y-122540000D01*
X86197067Y-122555417D01*
X86110000Y-122589889D01*
X86110000Y-121440000D01*
X85062155Y-121440000D01*
X85002627Y-121446401D01*
X85002620Y-121446403D01*
X84867913Y-121496645D01*
X84867906Y-121496649D01*
X84752812Y-121582809D01*
X84752809Y-121582812D01*
X84666649Y-121697906D01*
X84666645Y-121697913D01*
X84616403Y-121832620D01*
X84616401Y-121832627D01*
X84610000Y-121892155D01*
X84610000Y-122940000D01*
X85759272Y-122940000D01*
X85736900Y-122987543D01*
X85706127Y-123148862D01*
X85716439Y-123312766D01*
X85757780Y-123440000D01*
X84610000Y-123440000D01*
X84610000Y-124487844D01*
X83204500Y-124487844D01*
X83204500Y-99060004D01*
X84431093Y-99060004D01*
X84450692Y-99321545D01*
X84450693Y-99321550D01*
X84509058Y-99577270D01*
X84604883Y-99821426D01*
X84604882Y-99821426D01*
X84736027Y-100048573D01*
X84783874Y-100108571D01*
X85583452Y-99308993D01*
X85593188Y-99338956D01*
X85681186Y-99477619D01*
X85800903Y-99590040D01*
X85935510Y-99664041D01*
X85136830Y-100462720D01*
X85308546Y-100579793D01*
X85308550Y-100579795D01*
X85544854Y-100693594D01*
X85544858Y-100693595D01*
X85795494Y-100770907D01*
X85795500Y-100770909D01*
X86054848Y-100809999D01*
X86054857Y-100810000D01*
X86317143Y-100810000D01*
X86317151Y-100809999D01*
X86576499Y-100770909D01*
X86576505Y-100770907D01*
X86827143Y-100693595D01*
X87063445Y-100579798D01*
X87063447Y-100579797D01*
X87235168Y-100462720D01*
X86433534Y-99661086D01*
X86501629Y-99634126D01*
X86634492Y-99537595D01*
X86739175Y-99411055D01*
X86787631Y-99308078D01*
X87588125Y-100108572D01*
X87635971Y-100048573D01*
X87767116Y-99821426D01*
X87862941Y-99577270D01*
X87921306Y-99321550D01*
X87921307Y-99321545D01*
X87940907Y-99060004D01*
X87940907Y-99059995D01*
X87921307Y-98798454D01*
X87921306Y-98798449D01*
X87862941Y-98542729D01*
X87767116Y-98298573D01*
X87767117Y-98298573D01*
X87635972Y-98071426D01*
X87588124Y-98011427D01*
X86788546Y-98811004D01*
X86778812Y-98781044D01*
X86690814Y-98642381D01*
X86571097Y-98529960D01*
X86436489Y-98455958D01*
X87235168Y-97657278D01*
X87063454Y-97540206D01*
X87063445Y-97540201D01*
X86827142Y-97426404D01*
X86827144Y-97426404D01*
X86576505Y-97349092D01*
X86576499Y-97349090D01*
X86317151Y-97310000D01*
X86054848Y-97310000D01*
X85795500Y-97349090D01*
X85795494Y-97349092D01*
X85544858Y-97426404D01*
X85544854Y-97426405D01*
X85308547Y-97540205D01*
X85308539Y-97540210D01*
X85136830Y-97657277D01*
X85938466Y-98458913D01*
X85870371Y-98485874D01*
X85737508Y-98582405D01*
X85632825Y-98708945D01*
X85584368Y-98811920D01*
X84783875Y-98011427D01*
X84783874Y-98011427D01*
X84736028Y-98071425D01*
X84604883Y-98298573D01*
X84509058Y-98542729D01*
X84450693Y-98798449D01*
X84450692Y-98798454D01*
X84431093Y-99059995D01*
X84431093Y-99060004D01*
X83204500Y-99060004D01*
X83204500Y-96016875D01*
X83204882Y-96007146D01*
X83220693Y-95806241D01*
X83223737Y-95787022D01*
X83269642Y-95595816D01*
X83275655Y-95577311D01*
X83350905Y-95395642D01*
X83359739Y-95378305D01*
X83462479Y-95210648D01*
X83473915Y-95194907D01*
X83601627Y-95045374D01*
X83615374Y-95031627D01*
X83764910Y-94903912D01*
X83780648Y-94892479D01*
X83796247Y-94882920D01*
X83948308Y-94789737D01*
X83965639Y-94780906D01*
X84147315Y-94705653D01*
X84165811Y-94699643D01*
X84357026Y-94653736D01*
X84376236Y-94650693D01*
X84577146Y-94634881D01*
X84586875Y-94634500D01*
X88646000Y-94634500D01*
X88646000Y-97155000D01*
G37*
%TD.AperFunction*%
%TD*%
%TA.AperFunction,Conductor*%
%TO.N,GND*%
G36*
X96082039Y-94654185D02*
G01*
X96127794Y-94706989D01*
X96139000Y-94758500D01*
X96139000Y-97031000D01*
X96119315Y-97098039D01*
X96066511Y-97143794D01*
X96015000Y-97155000D01*
X88646000Y-97155000D01*
X88646000Y-94634500D01*
X96015000Y-94634500D01*
X96082039Y-94654185D01*
G37*
%TD.AperFunction*%
%TD*%
M02*
